<svg width="36" height="47" viewBox="0 0 36 47" fill="none" xmlns="http://www.w3.org/2000/svg">
<path d="M17.9992 10.9858C16.6891 10.9858 15.4084 11.3607 14.3191 12.063C13.2298 12.7653 12.3808 13.7636 11.8795 14.9315C11.3781 16.0994 11.2469 17.3845 11.5025 18.6244C11.7581 19.8642 12.389 21.0031 13.3154 21.897C14.2417 22.7909 15.422 23.3996 16.7069 23.6463C17.9919 23.8929 19.3237 23.7663 20.5341 23.2825C21.7444 22.7988 22.779 21.9795 23.5068 20.9284C24.2347 19.8773 24.6232 18.6416 24.6232 17.3774C24.6212 15.6829 23.9226 14.0582 22.6808 12.86C21.439 11.6618 19.7554 10.9877 17.9992 10.9858ZM17.9992 20.5733C17.3442 20.5733 16.7038 20.3858 16.1592 20.0347C15.6145 19.6835 15.19 19.1844 14.9393 18.6004C14.6887 18.0165 14.6231 17.3739 14.7509 16.754C14.8787 16.134 15.1941 15.5646 15.6573 15.1177C16.1205 14.6707 16.7106 14.3663 17.3531 14.243C17.9955 14.1197 18.6615 14.183 19.2666 14.4249C19.8718 14.6668 20.3891 15.0764 20.753 15.6019C21.1169 16.1275 21.3112 16.7454 21.3112 17.3774C21.3102 18.2247 20.9609 19.037 20.34 19.6361C19.7191 20.2353 18.8773 20.5723 17.9992 20.5733Z" fill="#01A0E3"/>
<path d="M30.7277 5.08585C27.5806 2.04987 23.3796 0.246375 18.9354 0.0234409C14.4912 -0.199494 10.119 1.17394 6.66262 3.87866C3.2062 6.58338 0.910587 10.4277 0.218849 14.6695C-0.47289 18.9114 0.488279 23.2502 2.91685 26.8484L15.4306 45.3855C15.7091 45.798 16.0899 46.1368 16.5384 46.3714C16.9869 46.606 17.489 46.7289 17.9992 46.7289C18.5094 46.7289 19.0115 46.606 19.4601 46.3714C19.9086 46.1368 20.2893 45.798 20.5678 45.3855L33.082 26.8484C35.3355 23.5105 36.3313 19.5266 35.9027 15.5645C35.4741 11.6023 33.647 7.90275 30.7277 5.08585ZM30.307 25.104L17.9993 43.3352L5.69146 25.104C1.92408 19.5234 2.7321 12.0552 7.61271 7.34559C8.97668 6.02942 10.596 4.98538 12.3781 4.27308C14.1602 3.56077 16.0703 3.19415 17.9993 3.19415C19.9283 3.19415 21.8383 3.56077 23.6205 4.27308C25.4026 4.98538 27.0219 6.02942 28.3858 7.34559C33.2665 12.0552 34.0744 19.5234 30.307 25.104Z" fill="#01A0E3"/>
</svg>
