<?xml version="1.0" encoding="UTF-8" standalone="no"?>
<svg
   version="1.1"
   width="595.2756"
   height="841.8898"
   id="svg30"
   sodipodi:docname="Евро Дентис лого.svg"
   inkscape:version="1.2 (dc2aedaf03, 2022-05-15)"
   xmlns:inkscape="http://www.inkscape.org/namespaces/inkscape"
   xmlns:sodipodi="http://sodipodi.sourceforge.net/DTD/sodipodi-0.dtd"
   xmlns="http://www.w3.org/2000/svg"
   xmlns:svg="http://www.w3.org/2000/svg">
  <defs
     id="defs34" />
  <sodipodi:namedview
     id="namedview32"
     pagecolor="#ffffff"
     bordercolor="#000000"
     borderopacity="0.25"
     inkscape:showpageshadow="2"
     inkscape:pageopacity="0.0"
     inkscape:pagecheckerboard="0"
     inkscape:deskcolor="#d1d1d1"
     showgrid="false"
     inkscape:zoom="2.9825757"
     inkscape:cx="316.84024"
     inkscape:cy="455.98172"
     inkscape:window-width="1920"
     inkscape:window-height="1017"
     inkscape:window-x="-8"
     inkscape:window-y="-8"
     inkscape:window-maximized="1"
     inkscape:current-layer="svg30" />
  <path
     d="  M338.0902,296.4053 C337.2497,296.4501 336.4200,296.5966 335.6240,296.8104 C334.6883,297.0621 333.8444,297.3912 333.1069,297.7517 C332.3798,298.1072 331.7635,298.4973 331.2196,298.9225 C330.6770,299.3468 330.1965,299.8165 329.7419,300.3301 C328.1771,302.0981 327.7976,303.9846 328.0765,305.8999 C328.4045,308.1529 329.5922,310.5831 330.9520,312.9752 C331.9554,314.7398 332.9059,316.6345 333.6338,318.6258 C334.3904,320.6945 334.9006,322.8605 334.9789,325.0882 L335.0052,325.8729 C335.0696,327.8098 335.1254,329.4853 335.4253,331.3953 C335.6181,332.6224 335.8828,333.9958 336.2556,335.3394 C336.6000,336.5813 337.0331,337.7710 337.5791,338.7288 C338.0244,339.5100 338.5063,340.0064 338.9601,340.2102 C339.1038,340.2748 339.2325,340.2952 339.3346,340.2694 C339.4803,340.2323 339.6549,340.0988 339.8471,339.8638 C340.4395,339.1398 340.8928,337.8489 341.0606,335.9188 C341.1386,335.0211 341.1533,334.3757 341.1672,333.7449 C341.2009,332.2278 341.2341,330.7694 341.6380,329.0000 C341.9549,327.6125 342.4419,326.3270 343.1520,325.2419 C343.8870,324.1188 344.8534,323.2128 346.1012,322.6164 C347.8238,321.7935 349.5067,321.8284 351.0045,322.4254 C352.5514,323.0416 353.8225,324.2565 354.6473,325.6977 C355.2180,326.6949 355.6281,327.8341 355.9079,329.0182 C356.1987,330.2493 356.3473,331.5742 356.3901,332.8452 C356.4023,333.2106 356.4108,333.6633 356.4184,334.1123 C356.4462,335.6546 356.4729,337.1170 356.9233,338.4371 C357.1260,339.0310 357.4179,339.6365 357.7941,340.0166 C357.9236,340.1476 358.0560,340.2383 358.1762,340.2488 L358.1759,340.2519 L358.2567,340.2578 C359.1907,340.2655 360.0454,338.8175 360.7384,337.0175 L360.7384,337.0065 C361.7303,334.4312 362.2161,331.2326 362.3961,329.1695 L362.4591,328.3909 C362.4973,327.7052 362.5089,327.1776 362.5200,326.6566 C362.5583,324.8725 362.5951,323.1482 363.1249,321.2294 C363.8577,318.5742 365.1177,316.4477 366.3703,314.3336 C367.0381,313.2068 367.7043,312.0826 368.1865,311.0570 C368.9087,309.5203 369.4745,307.5894 369.5712,305.6930 C369.6423,304.3035 369.4564,302.9695 368.8730,301.9224 C368.6054,301.4419 368.3279,301.0164 368.0235,300.6215 C367.7221,300.2304 367.3854,299.8593 366.9968,299.4843 C366.7156,299.2127 366.3306,298.9191 365.9094,298.6359 C365.3629,298.2688 364.7954,297.9391 364.3047,297.6928 C363.1190,297.0969 361.7589,296.6766 360.3586,296.4954 C359.0612,296.3282 357.7439,296.3659 356.5191,296.6610 C355.7075,296.8563 354.9010,297.2225 354.0886,297.5919 L354.0906,297.5961 C353.1954,298.0035 352.2920,298.4142 351.0601,298.7634 C350.1028,299.0347 349.4197,299.1600 348.6195,299.1433 C347.8385,299.1271 347.1823,298.9749 346.2474,298.6914 C344.9971,298.3124 344.0968,297.9065 343.2308,297.5156 C341.8002,296.8702 340.4849,296.2769 338.0902,296.4053 Z Z M334.1625,291.3406 C335.2927,291.0370 336.5116,290.8270 337.8022,290.7581 C341.5683,290.5563 343.4780,291.4177 345.5563,292.3554 C346.3061,292.6939 347.0848,293.0451 347.8864,293.2880 C348.3286,293.4221 348.5906,293.4933 348.7300,293.4961 C348.8505,293.4984 349.0943,293.4400 349.5322,293.3158 C350.2658,293.1080 351.0077,292.7704 351.7430,292.4359 L351.7540,292.4359 C352.7731,291.9725 353.7845,291.5124 355.2123,291.1686 C357.1243,290.7082 359.1292,290.6425 361.0672,290.8925 C363.1071,291.1561 365.0927,291.7712 366.8292,292.6437 C367.5461,293.0037 368.3373,293.4592 369.0541,293.9411 C369.7444,294.4049 370.3989,294.9094 370.9165,295.4092 C371.5016,295.9739 372.0195,296.5465 372.4971,297.1667 C372.9725,297.7832 373.4016,298.4400 373.8115,299.1762 C374.9607,301.2386 375.3391,303.6183 375.2184,305.9810 C375.0829,308.6402 374.3002,311.3249 373.3019,313.4489 C372.6459,314.8444 371.9449,316.0273 371.2425,317.2124 C370.1733,319.0173 369.0975,320.8323 368.5725,322.7352 C368.2267,323.9875 368.1972,325.3538 368.1672,326.7672 C368.1524,327.4492 368.1374,328.1423 368.1062,328.7010 C368.0830,329.1208 368.0614,329.4459 368.0433,329.6565 C367.8341,332.0541 367.2468,335.8310 366.0092,339.0440 L366.0055,339.0426 C364.4799,342.9989 361.9644,346.1321 357.9024,345.9050 C357.8304,345.9050 357.7612,345.8959 357.6892,345.8959 C356.0871,345.7565 354.8004,345.0277 353.7859,344.0027 C352.7178,342.9235 352.0001,341.5306 351.5641,340.2530 C350.8424,338.1378 350.8078,336.2219 350.7712,334.2008 C350.7650,333.8461 350.7582,333.4833 350.7429,333.0227 C350.7134,332.1400 350.6057,331.2017 350.3934,330.3028 C350.2346,329.6302 350.0172,329.0105 349.7309,328.5102 C349.4982,328.1034 349.2105,327.7885 348.9228,327.6740 C348.8196,327.6329 348.6889,327.6371 348.5373,327.7097 C348.3020,327.8222 348.0866,328.0433 347.8910,328.3424 C347.5664,328.8385 347.3263,329.5023 347.1525,330.2626 C346.8671,331.5132 346.8410,332.6615 346.8144,333.8555 C346.7951,334.7362 346.7747,335.6359 346.7078,336.4058 C346.4337,339.5571 345.5005,341.9008 344.2317,343.4513 C343.2390,344.6643 342.0340,345.4296 340.7298,345.7619 C339.3814,346.1054 337.9864,345.9682 336.6567,345.3704 C335.1345,344.6864 333.7265,343.3859 332.6627,341.5192 C331.8676,340.1243 331.2660,338.4969 330.8080,336.8452 C330.3780,335.2952 330.0698,333.6948 329.8445,332.2587 C329.4893,329.9967 329.4283,328.1664 329.3580,326.0503 L329.3320,325.2878 C329.2764,323.7151 328.8915,322.1184 328.3189,320.5522 C327.7182,318.9087 326.9044,317.2935 326.0356,315.7656 C324.3835,312.8596 322.9294,309.8273 322.4735,306.6970 C321.9684,303.2291 322.6618,299.8074 325.5120,296.5873 C326.1832,295.8290 326.9061,295.1252 327.7426,294.4709 C328.5771,293.8184 329.5191,293.2223 330.6266,292.6806 C331.7119,292.1502 332.9048,291.6788 334.1625,291.3406 Z"
     style="fill-rule: evenodd; fill: #f07c00; "
     id="path2" />
  <path
     d="  M280.2081,353.9869 C279.9848,354.8251 279.8649,355.6602 279.8235,356.4672 C279.7753,357.4057 279.8308,358.3196 279.9507,359.1663 C280.0647,359.9714 280.2438,360.6752 280.4777,361.3173 C280.7161,361.9712 281.0137,362.5733 281.3590,363.1601 C282.5541,365.1900 284.2260,366.1319 286.1283,366.4573 C288.3864,366.8437 291.0657,366.4661 293.7591,365.9125 C295.7462,365.5040 297.8393,365.1854 299.9543,365.1086 C302.1738,365.0281 304.3962,365.2098 306.5185,365.8175 L307.2674,366.0330 L307.2674,366.0440 C309.1107,366.5758 310.7058,367.0362 312.6487,367.3466 C313.8877,367.5441 315.2806,367.7185 316.6611,367.7783 C317.9546,367.8344 319.2233,367.7905 320.3002,367.5679 C321.1812,367.3857 321.8031,367.0804 322.1382,366.7107 L322.1382,366.6997 C322.2437,366.5832 322.3032,366.4738 322.3089,366.3819 C322.3188,366.2266 322.2456,366.0157 322.0804,365.7586 C321.5710,364.9652 320.4842,364.1326 318.7089,363.3800 C318.0492,363.1005 317.3479,362.8551 316.6620,362.6152 C315.2426,362.1189 313.8786,361.6415 312.3011,360.6985 C311.0820,359.9700 310.0105,359.1096 309.1961,358.0968 C308.3508,357.0454 307.7853,355.8447 307.6041,354.4773 C307.3547,352.5917 307.9103,351.0017 308.9446,349.7570 C310.0037,348.4826 311.5519,347.6511 313.1807,347.3116 C314.3177,347.0746 315.5182,347.0343 316.7062,347.1318 L316.7172,347.1318 C317.9639,347.2345 319.2698,347.5040 320.5015,347.8589 C321.0392,348.0137 321.3845,348.1191 321.7178,348.2209 C323.2066,348.6747 324.6180,349.1053 326.0001,349.0852 C326.6212,349.0761 327.2856,348.9843 327.7743,348.7414 L327.7721,348.7371 C327.9209,348.6626 328.0391,348.5767 328.0963,348.4826 L328.1409,348.3731 L328.1451,348.3748 C328.4371,347.4916 327.3188,346.2287 325.8162,345.0095 C323.6491,343.2506 320.7708,341.8038 318.8818,341.0025 L318.8707,341.0025 C318.5592,340.8701 318.3219,340.7729 318.1550,340.7083 C317.6317,340.5053 317.0716,340.3100 316.5197,340.1175 C314.8353,339.5299 313.2071,338.9621 311.5451,337.8651 C309.2474,336.3486 307.6138,334.4924 305.9895,332.6465 C305.1306,331.6708 304.2737,330.6974 303.4281,329.9037 C302.1945,328.7458 300.5374,327.6150 298.7668,326.9381 C297.4680,326.4415 296.1414,326.2065 294.9627,326.4381 C294.4106,326.5466 293.9168,326.6793 293.4527,326.8446 C292.9652,327.0183 292.5113,327.2204 292.0609,327.4603 L292.0609,327.4713 C291.6947,327.6660 291.2973,327.9382 290.9143,328.2384 C290.4265,328.6210 289.9395,329.0601 289.5327,329.4703 C288.5998,330.4140 287.7792,331.5781 287.1734,332.8563 C286.6173,334.0298 286.2488,335.2873 286.1512,336.5379 C286.0812,337.4379 286.1785,338.2965 286.2763,339.1622 C286.3871,340.1399 286.4985,341.1264 286.4509,342.3807 C286.4123,343.3969 286.3210,344.0931 286.0614,344.8397 C285.7986,345.5938 285.4553,346.1672 284.9074,346.9535 C284.1979,347.9717 283.5094,348.7289 282.8463,349.4580 C281.7918,350.6176 280.8224,351.6837 280.2081,353.9869 Z Z M274.1763,356.1792 C274.2372,354.9943 274.4121,353.7714 274.7384,352.5474 C275.7141,348.8888 277.1254,347.3371 278.6607,345.6488 C279.1905,345.0665 279.7404,344.4613 280.2569,343.7203 C280.5318,343.3258 280.6843,343.0947 280.7243,342.9797 C280.7671,342.8563 280.7875,342.6137 280.8037,342.1811 C280.8334,341.3942 280.7419,340.5847 280.6512,339.7825 C280.5225,338.6455 280.3952,337.5179 280.5041,336.1173 C280.6574,334.1517 281.2170,332.2168 282.0580,330.4423 C282.9379,328.5856 284.1358,326.8882 285.5024,325.5063 L285.5134,325.4953 C286.0551,324.9476 286.7312,324.3404 287.4373,323.7868 C288.1069,323.2621 288.7894,322.7924 289.4031,322.4665 L289.4077,322.4750 C290.1501,322.0801 290.8565,321.7620 291.5705,321.5075 C292.3098,321.2444 293.0635,321.0392 293.8776,320.8793 C296.1921,320.4241 298.5721,320.8003 300.7823,321.6453 C303.2719,322.5971 305.5878,324.1740 307.3037,325.7844 C308.4089,326.8216 309.3239,327.8614 310.2415,328.9037 C311.6265,330.4777 313.0194,332.0603 314.6678,333.1483 C315.7517,333.8637 317.0435,334.3144 318.3797,334.7804 C318.9634,334.9840 319.5547,335.1900 320.1925,335.4375 C320.5108,335.5608 320.8139,335.6830 321.0851,335.7981 L321.0834,335.8020 C323.3163,336.7500 326.7354,338.4774 329.3816,340.6249 C332.6717,343.2949 334.8746,346.6553 333.4005,350.4549 L333.3895,350.4991 L333.3203,350.6593 C332.6913,352.1418 331.6031,353.1399 330.3187,353.7862 L330.3077,353.7862 C328.9632,354.4620 327.4189,354.7128 326.0665,354.7324 C323.8194,354.7653 321.9990,354.2100 320.0788,353.6243 C319.6429,353.4911 319.2080,353.3581 318.9515,353.2844 C318.1124,353.0426 317.1864,352.8558 316.2523,352.7790 C315.5431,352.7206 314.8812,352.7340 314.3322,352.8482 C313.8766,352.9431 313.4883,353.1223 313.2850,353.3666 C313.2176,353.4477 313.1844,353.5733 313.2071,353.7465 C313.2417,354.0087 313.3834,354.2805 313.6028,354.5535 C313.9727,355.0139 314.5306,355.4470 315.2021,355.8484 C316.2841,356.4952 317.3811,356.8791 318.5220,357.2782 C319.2625,357.5370 320.0202,357.8023 320.9012,358.1756 C323.8217,359.4138 325.7634,361.0227 326.8414,362.7023 C327.6873,364.0195 328.0422,365.3983 327.9560,366.7363 C327.8656,368.1377 327.3035,369.4292 326.3238,370.5089 L326.3185,370.5038 C325.1979,371.7366 323.5286,372.6703 321.4295,373.1046 C319.8552,373.4300 318.1243,373.4994 316.4173,373.4254 C314.7976,373.3551 313.1864,373.1545 311.7626,372.9274 C309.5393,372.5722 307.7677,372.0611 305.7202,371.4704 L305.7174,371.4806 L304.9685,371.2652 C303.4355,370.8261 301.8019,370.6960 300.1538,370.7558 C298.4020,370.8193 296.6119,371.0948 294.8885,371.4491 C291.6122,372.1226 288.2801,372.5694 285.1758,372.0382 C281.7156,371.4460 278.6712,369.7271 276.4868,366.0168 C275.9703,365.1392 275.5239,364.2344 275.1627,363.2437 C274.7974,362.2408 274.5204,361.1591 274.3478,359.9413 C274.1834,358.7800 274.1080,357.5089 274.1763,356.1792 Z"
     style="fill-rule: evenodd; fill: #e30016; "
     id="path4" />
  <path
     d="  M317.0897,426.8546 C317.7904,427.3084 318.5470,427.6769 319.3189,427.9723 C320.1985,428.3090 321.0812,428.5380 321.9168,428.6843 C322.7443,428.8294 323.4688,428.8791 324.1301,428.8558 C324.8252,428.8314 325.4902,428.7339 326.1566,428.5865 C328.4614,428.0763 329.8759,426.7760 330.7740,425.0665 C331.8307,423.0550 332.2984,420.3893 332.6046,417.6513 C332.8313,415.6220 333.1755,413.5275 333.7520,411.5052 C334.3581,409.3795 335.2201,407.3221 336.4659,405.4742 L336.9033,404.8271 C338.0091,403.1935 338.9658,401.7793 339.8139,400.1204 C340.3834,399.0064 340.9781,397.7374 341.4626,396.4411 C341.9104,395.2420 342.2582,394.0265 342.3804,392.9207 C342.4793,392.0278 342.3787,391.3393 342.1276,390.9005 C342.0442,390.7548 341.9583,390.6609 341.8784,390.6292 C341.7361,390.5728 341.5102,390.5790 341.2057,390.6587 C340.3040,390.8951 339.1812,391.6723 337.9119,393.1339 C337.4439,393.6730 336.9912,394.2677 336.5487,394.8489 C335.6447,396.0363 334.7753,397.1784 333.3830,398.3941 C332.3095,399.3316 331.1566,400.0873 329.9391,400.5496 C328.6831,401.0267 327.3721,401.1934 326.0211,400.9439 C324.1406,400.5969 322.7961,399.5765 321.9327,398.2079 C321.0503,396.8110 320.7390,395.0844 320.9190,393.4327 C321.0446,392.2804 321.3791,391.1219 321.8431,390.0132 C322.3468,388.8094 323.0014,387.6506 323.6967,386.6224 L324.4263,385.5821 C325.3139,384.3125 326.1557,383.1086 326.5628,381.7905 C326.7459,381.1969 326.8630,380.5311 326.7782,379.9769 C326.7499,379.7915 326.7006,379.6421 326.6220,379.5741 L326.6249,379.5707 L326.5954,379.5457 L326.5929,379.5489 C325.8564,378.9479 324.2883,379.6245 322.6405,380.6921 C320.2999,382.2089 318.0311,384.5032 316.6824,386.0555 C316.4879,386.2791 316.3192,386.4793 316.1784,386.6519 C315.7384,387.1913 315.4195,387.6106 315.1066,388.0227 C314.0209,389.4517 312.9715,390.8324 311.4312,392.0613 C309.2814,393.7754 307.0074,394.7576 304.7460,395.7335 C303.5636,396.2441 302.3844,396.7534 301.3532,397.3207 C299.8616,398.1410 298.2711,399.3670 297.0879,400.8322 C296.2165,401.9114 295.5841,403.0982 295.4407,404.2894 C295.3698,404.8781 295.3412,405.3903 295.3542,405.8546 C295.3670,406.3119 295.4245,406.8128 295.5249,407.3822 C295.5943,407.7760 295.7321,408.2394 295.9038,408.7091 C296.1198,409.2999 296.3880,409.9008 296.6508,410.4096 C297.2580,411.5854 298.1098,412.7224 299.1356,413.6913 C300.0872,414.5899 301.1706,415.3320 302.3232,415.8082 C303.1455,416.1481 303.9931,416.3213 304.8474,416.4956 C305.8461,416.6994 306.8535,416.9055 307.9783,417.3185 C308.9098,417.6607 309.5379,417.9631 310.1856,418.4546 C310.8300,418.9436 311.2690,419.4473 311.8462,420.2093 C312.5840,421.1836 313.0960,422.0802 313.5883,422.9436 C314.3633,424.3017 315.0760,425.5500 317.0897,426.8546 Z Z M317.3034,433.2651 C316.2129,432.8476 315.1020,432.2999 314.0113,431.5935 C310.8458,429.5429 309.8047,427.7188 308.6719,425.7340 C308.2861,425.0577 307.8850,424.3552 307.3283,423.6199 C307.0369,423.2353 306.8646,423.0184 306.7750,422.9504 C306.6897,422.8855 306.4592,422.7914 306.0292,422.6335 C305.2369,422.3426 304.4741,422.1865 303.7181,422.0323 C302.5973,421.8038 301.4853,421.5762 300.1751,421.0347 C298.3462,420.2790 296.6800,419.1514 295.2601,417.8106 C293.7640,416.3978 292.5176,414.7311 291.6238,413.0005 C291.2661,412.3083 290.8956,411.4746 290.5889,410.6356 C290.3012,409.8481 290.0670,409.0552 289.9440,408.3568 C289.8094,407.5937 289.7297,406.8289 289.7070,406.0094 C289.6841,405.1970 289.7201,404.4180 289.8156,403.6249 C290.0976,401.2818 291.1924,399.1323 292.6811,397.2889 C294.3638,395.2052 296.5759,393.4894 298.6291,392.3600 C299.9412,391.6380 301.2236,391.0842 302.5094,390.5291 C304.4307,389.7000 306.3628,388.8655 307.9100,387.6318 C308.9415,386.8092 309.7619,385.7295 310.6108,384.6121 C311.0258,384.0656 311.4462,383.5128 311.7937,383.0865 C311.9811,382.8566 312.1880,382.6108 312.4083,382.3574 C313.9960,380.5302 316.6960,377.8104 319.5621,375.9531 C323.1210,373.6471 327.0005,372.5884 330.1583,375.1642 L330.1914,375.1974 L330.2870,375.2779 L330.3201,375.3000 C331.5467,376.3658 332.1638,377.7131 332.3812,379.1356 C332.6068,380.6113 332.3662,382.1556 331.9662,383.4516 C331.3026,385.6003 330.2087,387.1650 329.0547,388.8153 C328.9830,388.9179 328.9181,389.0103 328.3914,389.7893 C327.8795,390.5461 327.4101,391.3693 327.0696,392.1834 C326.7969,392.8351 326.6053,393.4681 326.5441,394.0308 C326.4936,394.4957 326.5444,394.9234 326.7164,395.1958 C326.7729,395.2851 326.8777,395.3554 327.0399,395.3852 C327.3060,395.4342 327.6136,395.3829 327.9458,395.2568 C328.4946,395.0484 329.0763,394.6538 329.6622,394.1422 C330.6033,393.3204 331.3140,392.3870 332.0529,391.4161 C332.5258,390.7950 333.0094,390.1598 333.6378,389.4358 C335.7128,387.0468 337.8475,385.6980 339.7884,385.1889 C341.2942,384.7941 342.7121,384.8842 343.9602,385.3806 C345.2709,385.9021 346.3248,386.8319 347.0440,388.0879 C347.8697,389.5294 348.2419,391.4056 348.0055,393.5409 C347.8303,395.1266 347.3583,396.7982 346.7554,398.4123 C346.1885,399.9291 345.4991,401.4020 344.8409,402.6892 C343.7691,404.7860 342.7620,406.2742 341.5980,407.9940 L341.1607,408.6411 C340.2805,409.9467 339.6543,411.4599 339.1997,413.0552 C338.7152,414.7549 338.4235,416.5364 338.2296,418.2715 C337.8586,421.5906 337.2523,424.8969 335.7788,427.7015 C334.1469,430.8080 331.5739,433.1713 327.3744,434.1010 C326.3817,434.3207 325.3842,434.4659 324.3297,434.5030 C323.2420,434.5413 322.1269,434.4729 320.9423,434.2652 C319.7798,434.0614 318.5447,433.7405 317.3034,433.2651 Z"
     style="fill-rule: evenodd; fill: #ab417f; "
     id="path6" />
  <path
     d="  M397.7736,414.2900 C398.4372,413.7514 399.0223,413.1473 399.5323,412.5166 C400.1258,411.7825 400.6159,411.0148 401.0114,410.2690 C401.3898,409.5558 401.6591,408.8781 401.8499,408.2114 C402.0474,407.5203 402.1622,406.8624 402.2254,406.2053 C402.4528,403.8480 401.6543,402.0987 400.3067,400.7171 C398.7238,399.0943 396.3319,397.8258 393.8213,396.6880 C391.9830,395.8549 390.1054,394.8823 388.3357,393.6926 C386.5014,392.4592 384.8111,391.0037 383.4374,389.2470 L382.9629,388.6381 C381.7780,387.1165 380.7533,385.8004 379.3691,384.4123 C378.4929,383.5338 377.4722,382.5788 376.3800,381.7106 C375.3703,380.9078 374.3215,380.1997 373.3220,379.7481 C372.4968,379.3754 371.8103,379.2566 371.3190,379.3589 C371.1671,379.3907 371.0548,379.4462 370.9933,379.5202 L370.9823,379.5202 C370.8887,379.6328 370.8275,379.8428 370.8099,380.1492 C370.7558,381.0926 371.1484,382.4101 372.1487,384.0735 C372.5294,384.7065 372.9450,385.3057 373.3509,385.8917 C374.2084,387.1293 375.0330,388.3190 375.7513,390.0010 C376.3066,391.3016 376.6666,392.6271 376.7304,393.9344 C376.7967,395.2905 376.5521,396.5927 375.9012,397.7926 L375.8964,397.7901 C374.9817,399.4727 373.5981,400.4365 372.0348,400.8342 C370.4352,401.2410 368.6922,401.0003 367.1666,400.3140 C366.1245,399.8452 365.1284,399.1683 364.2106,398.3788 C363.2346,397.5389 362.3343,396.5559 361.5627,395.5654 C361.0542,394.9126 360.9162,394.7298 360.7858,394.5572 C359.8489,393.3156 358.9608,392.1386 357.8445,391.3526 C357.3283,390.9892 356.7319,390.6689 356.2007,390.5819 C356.0369,390.5552 355.8912,390.5546 355.7891,390.5955 L355.6916,390.6561 C354.9308,391.1876 355.0949,392.8734 355.5964,394.7536 C356.3144,397.4451 357.7958,400.3121 358.8557,402.0758 C358.9662,402.2597 359.1077,402.4848 359.2695,402.7357 C359.6250,403.2873 359.9331,403.7309 360.2370,404.1689 L360.2421,404.1652 C361.2478,405.6134 362.2198,407.0134 362.9356,408.9206 C363.8962,411.4806 364.1281,413.9544 364.3586,416.4143 C364.4742,417.6505 364.5899,418.8841 364.8266,420.1237 C365.1469,421.7995 365.8226,423.6953 366.8525,425.2768 C367.6073,426.4359 368.5391,427.4014 369.6276,427.9059 C370.1415,428.1440 370.6191,428.3274 371.0883,428.4655 C371.5617,428.6047 372.0509,428.7067 372.5838,428.7815 C372.9750,428.8363 373.4617,428.8479 373.9703,428.8294 C374.5981,428.8068 375.2544,428.7368 375.8238,428.6435 C377.1346,428.4286 378.4819,427.9691 379.7203,427.2931 C380.8570,426.6723 381.8951,425.8692 382.7151,424.9077 C383.2869,424.2370 383.7135,423.4844 384.1432,422.7262 C384.6444,421.8423 385.1495,420.9503 385.8942,420.0035 C386.5212,419.2061 387.0028,418.6981 387.6506,418.2480 C388.2691,417.8186 388.8967,417.5546 389.8429,417.2267 C391.0442,416.8100 392.0301,416.6053 392.9794,416.4086 C394.5081,416.0917 395.9130,415.8000 397.7736,414.2900 Z Z M403.9390,416.0599 C403.1955,416.9798 402.3320,417.8687 401.3391,418.6746 C398.4083,421.0534 396.3492,421.4806 394.1087,421.9452 C393.3224,422.1082 392.5052,422.2777 391.6809,422.5637 C391.2678,422.7069 391.0218,422.8027 390.8837,422.8985 C390.7755,422.9736 390.6153,423.1596 390.3457,423.5026 C389.8278,424.1614 389.4420,424.8420 389.0597,425.5166 C388.4958,426.5116 387.9363,427.4989 387.0113,428.5837 C385.7383,430.0764 384.1492,431.3106 382.4223,432.2537 C380.6164,433.2399 378.6489,433.9100 376.7321,434.2243 C375.9678,434.3496 375.0630,434.4440 374.1698,434.4766 C373.3401,434.5067 372.5169,434.4837 371.8089,434.3845 C371.0018,434.2714 370.2453,434.1121 369.4935,433.8910 C368.7378,433.6688 368.0073,433.3915 367.2578,433.0440 C365.1165,432.0516 363.4089,430.3440 362.1135,428.3552 C360.6540,426.1139 359.7069,423.4842 359.2678,421.1867 C359.0028,419.7986 358.8681,418.3628 358.7335,416.9234 C358.5390,414.8470 358.3431,412.7587 357.6427,410.8918 C357.2022,409.7180 356.4105,408.5779 355.5916,407.3984 L355.5916,407.3873 C355.2114,406.8397 354.8254,406.2838 354.5084,405.7920 C354.3883,405.6058 354.2210,405.3351 354.0056,404.9768 C352.7592,402.9026 351.0074,399.4948 350.1266,396.1930 C349.0350,392.1012 349.2309,388.0877 352.6625,385.8766 L352.8020,385.7882 L352.8462,385.7661 C354.2261,384.9367 355.6919,384.7694 357.1089,385.0010 C358.6034,385.2459 359.9989,385.9489 361.0998,386.7242 C362.9494,388.0267 364.0952,389.5449 365.3036,391.1465 L366.0143,392.0885 C366.5667,392.7977 367.2043,393.4956 367.8866,394.0826 C368.4155,394.5376 368.9609,394.9149 369.4921,395.1539 C369.9082,395.3409 370.3252,395.4217 370.6396,395.3418 C370.7444,395.3151 370.8439,395.2397 370.9185,395.1017 L370.9185,395.0906 C371.0514,394.8454 371.0999,394.5416 371.0832,394.2003 C371.0548,393.6195 370.8567,392.9414 370.5469,392.2155 C370.0483,391.0479 369.3872,390.0943 368.7004,389.1027 C368.2457,388.4465 367.7805,387.7756 367.2986,386.9745 C365.6701,384.2671 365.0482,381.8299 365.1627,379.8391 C365.2523,378.2801 365.7776,376.9540 366.6373,375.9160 L366.6308,375.9106 C367.5246,374.8334 368.7384,374.1208 370.1676,373.8223 C371.7975,373.4821 373.6959,373.7061 375.6475,374.5879 C377.1156,375.2512 378.5601,376.2150 379.9012,377.2811 C381.1595,378.2815 382.3495,379.3958 383.3773,380.4262 C384.9758,382.0292 386.1068,383.4819 387.4144,385.1612 L387.8889,385.7700 C388.8581,387.0094 390.1037,388.0721 391.4804,388.9979 C392.9227,389.9673 394.5348,390.7973 396.1468,391.5278 C399.1867,392.9054 402.1435,394.5036 404.3591,396.7753 C406.8102,399.2882 408.2630,402.4638 407.8505,406.7371 C407.7507,407.7714 407.5812,408.7695 407.2975,409.7614 C407.0066,410.7779 406.5953,411.8125 406.0162,412.9041 C405.4612,413.9504 404.7729,415.0281 403.9390,416.0599 Z"
     style="fill-rule: evenodd; fill: #009ee0; "
     id="path8" />
  <path
     d="  M410.7620,333.6585 C410.4601,332.8741 410.0644,332.1303 409.6148,331.4392 C409.1043,330.6546 408.5266,329.9530 407.9381,329.3450 C407.3797,328.7679 406.8162,328.3010 406.2353,327.9098 C405.6491,327.5150 405.0564,327.2026 404.4410,326.9350 C402.2739,325.9922 400.3668,326.2113 398.6388,327.0648 C396.6021,328.0708 394.6561,329.9536 392.7980,331.9897 C391.4405,333.4774 389.9347,334.9627 388.2478,336.2848 C386.5071,337.6488 384.6013,338.8065 382.5116,339.5679 L381.7797,339.8335 C379.9653,340.4903 378.3954,341.0592 376.6561,341.9425 C375.5432,342.5074 374.3181,343.1840 373.1647,343.9474 C372.0906,344.6586 371.0934,345.4373 370.3527,346.2508 C369.7449,346.9184 369.4207,347.5310 369.3671,348.0253 C369.3492,348.1909 369.3671,348.3215 369.4195,348.4046 C369.4997,348.5316 369.6789,348.6557 369.9584,348.7646 C370.8340,349.1059 372.2077,349.1379 374.1043,348.6991 C374.7932,348.5398 375.5081,348.3249 376.2068,348.1152 C377.6241,347.6894 378.9870,347.2801 380.8616,347.1117 C382.2877,346.9842 383.6588,347.0474 384.8950,347.3833 C386.1941,347.7359 387.3557,348.3751 388.3068,349.3757 C389.6237,350.7610 390.1113,352.3725 390.0070,353.9815 C389.8990,355.6366 389.1322,357.2235 388.0100,358.4605 C387.2511,359.2964 386.2942,360.0363 385.2445,360.6741 C384.1288,361.3521 382.9224,361.9040 381.7613,362.3247 C381.0070,362.5982 380.7737,362.6793 380.5617,362.7522 C379.0811,363.2630 377.6771,363.7477 376.6042,364.5513 C376.1053,364.9252 375.6192,365.3932 375.3672,365.8819 C375.2813,366.0483 375.2354,366.2039 375.2623,366.3213 L375.2725,366.3629 C375.5222,367.2694 377.1802,367.6402 379.1310,367.7445 C381.9155,367.8934 385.1070,367.3692 387.1174,366.9049 C387.4054,366.8383 387.6582,366.7757 387.8722,366.7192 C388.3510,366.5931 388.9525,366.4114 389.5455,366.2325 C391.2361,365.7234 392.8691,365.2308 394.8871,365.1403 C397.6211,365.0179 400.0422,365.5610 402.4491,366.1010 C403.7057,366.3831 404.9595,366.6645 406.1296,366.8119 C407.8052,367.0228 409.8132,366.9622 411.6563,366.4658 C412.9960,366.1053 414.2049,365.5168 415.0199,364.6389 C415.3961,364.2338 415.7147,363.8390 415.9942,363.4308 C416.2652,363.0348 416.5143,362.5974 416.7578,362.0976 C416.9256,361.7535 417.0858,361.2960 417.2264,360.8028 C417.4004,360.1916 417.5371,359.5493 417.6224,358.9894 C417.8245,357.6654 417.8058,356.2393 417.5464,354.8588 C417.3063,353.5807 416.8636,352.3433 416.2039,351.2687 C415.7289,350.4949 415.1554,349.8678 414.5774,349.2363 C413.8931,348.4885 413.2023,347.7336 412.5288,346.7285 C411.9551,345.8721 411.6180,345.2562 411.3958,344.5200 L411.3958,344.5089 C411.1784,343.7875 411.1217,343.1151 411.1019,342.1247 C411.0763,340.8375 411.1852,339.8519 411.2895,338.9026 L411.2895,338.8915 C411.4613,337.3305 411.6195,335.8956 410.7620,333.6695 L410.7620,333.6585 Z Z M414.3538,328.3608 C414.9899,329.3388 415.5650,330.4301 416.0290,331.6334 L416.0327,331.6320 C417.3934,335.1645 417.1640,337.2463 416.9146,339.5117 C416.8244,340.3210 416.7323,341.1621 416.7490,342.0142 C416.7575,342.4533 416.7726,342.7209 416.8185,342.8819 L416.8213,342.8810 C416.8653,343.0267 416.9897,343.2345 417.2236,343.5837 C417.6867,344.2751 418.2163,344.8539 418.7409,345.4271 C419.5236,346.2826 420.2997,347.1310 421.0319,348.3235 C422.0597,349.9985 422.7429,351.8895 423.1052,353.8179 C423.4861,355.8461 423.5168,357.9216 423.2254,359.8308 C423.1069,360.6066 422.9169,361.4998 422.6740,362.3528 C422.4475,363.1470 422.1694,363.9249 421.8511,364.5780 C421.5022,365.2940 421.1169,365.9618 420.6668,366.6197 C420.2249,367.2652 419.7325,367.8769 419.1613,368.4923 C417.5549,370.2229 415.4054,371.3196 413.1179,371.9356 C410.5559,372.6255 407.7584,372.7094 405.4209,372.4149 C403.9370,372.2281 402.5744,371.9222 401.2087,371.6155 C399.1703,371.1583 397.1205,370.6982 395.1309,370.7875 C393.8621,370.8442 392.5352,371.2445 391.1624,371.6580 C390.6040,371.8264 390.0373,371.9976 389.3117,372.1890 C389.0228,372.2652 388.7090,372.3435 388.3799,372.4194 C386.0274,372.9628 382.2523,373.5737 378.8430,373.3917 C374.6055,373.1649 370.8422,371.7388 369.8002,367.7936 L369.7478,367.5838 C369.3858,366.0163 369.6803,364.5697 370.3402,363.2910 C371.0296,361.9551 372.1326,360.8450 373.2157,360.0334 C375.0471,358.6618 376.8364,358.0441 378.7237,357.3930 L379.8349,357.0097 C380.7000,356.6962 381.5671,356.3045 382.3214,355.8461 C382.9020,355.4935 383.4235,355.0927 383.8243,354.6513 C384.1325,354.3114 384.3394,353.9424 384.3598,353.6271 C384.3669,353.5157 384.3235,353.3933 384.2096,353.2734 C384.0282,353.0823 383.7523,352.9454 383.4113,352.8530 C382.8237,352.6934 382.1170,352.6682 381.3486,352.7368 C380.1379,352.8454 379.0035,353.1864 377.8237,353.5407 C377.0748,353.7655 376.3086,353.9957 375.3669,354.2136 C372.2944,354.9246 369.7835,354.7613 367.9209,354.0353 C366.4570,353.4647 365.3549,352.5545 364.6358,351.4167 C363.8883,350.2352 363.5855,348.8681 363.7420,347.4272 C363.9223,345.7672 364.7237,344.0271 366.1671,342.4416 C367.2499,341.2525 368.6122,340.1773 370.0420,339.2306 C371.3930,338.3362 372.8186,337.5488 374.1094,336.8934 C376.1323,335.8661 377.8586,335.2408 379.8533,334.5185 L380.5852,334.2529 C382.0689,333.7123 383.4655,332.8560 384.7708,331.8333 C386.1300,330.7680 387.4167,329.4907 388.6123,328.1805 C390.8625,325.7147 393.2955,323.3971 396.1363,321.9936 C399.2856,320.4380 402.7581,320.0377 406.6997,321.7527 C407.6419,322.1626 408.5368,322.6320 409.4022,323.2151 C410.2736,323.8021 411.1288,324.5125 411.9905,325.4031 C412.8129,326.2530 413.6258,327.2417 414.3538,328.3608 Z"
     style="fill-rule: evenodd; fill: #009035; "
     id="path10" />
  <path
     d="  M226.6027,447.1801 C211.7370,454.2840 201.7723,466.0645 202.2517,476.5671 C202.4578,481.0808 204.4930,485.7350 212.0919,484.8687 C223.3174,483.5894 233.5368,469.7731 232.9583,457.1005 C232.8987,455.7983 232.7567,454.5930 232.4384,453.3205 L224.7659,456.3763 C224.9901,457.4849 225.0417,458.6134 225.0930,459.7418 C225.5607,469.9843 219.0013,478.4100 214.0792,478.9709 C212.3524,479.1677 210.2323,478.3623 210.0699,474.8034 C209.7570,467.9461 217.8340,456.6427 228.2145,452.0568 L226.6027,447.1801 Z"
     style="fill-rule: evenodd; fill: #009ee0; "
     id="path12" />
  <path
     d="  M180.9867,444.2647 C172.7002,462.3976 163.5534,486.3872 155.7133,510.4896 L162.0017,511.3434 C167.6395,496.0429 169.5438,488.3221 177.7462,475.9574 C179.7780,472.9337 184.2301,465.8822 187.7706,465.4786 C189.0660,465.3312 189.1879,466.1025 189.1998,466.3630 C189.2117,466.6235 189.2197,466.7970 189.2316,467.0575 C189.1928,468.1089 188.2040,469.2685 185.5803,474.5409 C182.7958,480.0932 182.4673,482.3994 182.5424,484.0486 C182.7128,487.7810 185.7552,487.8703 187.2230,487.7031 C190.5038,487.3294 200.3284,479.3834 202.8356,477.2656 L204.1121,472.4748 C201.1493,474.1214 193.6916,479.2005 192.3103,479.3579 C191.9648,479.3970 191.2623,479.2158 191.2226,478.3476 C191.1512,476.7854 193.1990,474.1089 196.0226,467.5051 C197.1204,464.9369 198.1397,462.5518 198.0448,460.4686 C197.9456,458.2987 196.3630,455.9491 193.5995,456.2640 C190.4046,456.6280 186.3082,460.0616 176.8377,471.2618 L175.9501,470.8395 L186.8128,446.3926 L180.9867,444.2647 Z"
     style="fill-rule: evenodd; fill: #009ee0; "
     id="path14" />
  <path
     d="  M134.9456,485.2854 C135.6888,488.2544 138.0895,493.3032 144.9975,492.5157 C154.4097,491.4431 162.1066,481.3172 160.5750,470.5852 L153.2906,472.6369 C153.5372,479.9381 150.6943,486.1077 145.9449,486.6491 C143.2678,486.9541 142.3840,484.6992 142.3403,483.7445 C142.2967,482.7898 142.6918,480.0396 142.9897,478.9590 C155.2521,469.9704 173.9100,454.6687 173.4386,444.3395 C173.2683,440.6071 171.5321,438.7110 168.1645,439.0948 C155.7300,440.5119 137.6396,460.6350 134.7160,480.2511 C134.4438,483.2495 134.9297,485.2976 134.9456,485.2854 Z Z M144.7413,471.6918 C147.5408,464.5670 149.7098,460.7425 155.2020,453.6601 C160.7766,446.4808 163.4338,445.7418 164.6425,445.6040 C166.4558,445.3971 166.3705,447.3266 166.3982,447.9341 C166.6437,453.3157 153.2288,465.5767 144.7413,471.6918 Z"
     style="fill-rule: evenodd; fill: #009ee0; "
     id="path16" />
  <path
     d="  M144.7412,471.6918 C128.0843,485.4494 115.8541,490.1439 107.1940,490.4655 C103.5721,490.5998 102.6651,487.8807 102.8508,484.8506 C103.5068,474.1359 117.7148,463.2384 127.3186,455.2399 L124.9757,449.5593 C122.7881,451.2608 119.0927,453.4957 116.7288,453.8269 C114.8026,454.0969 112.9495,453.1765 113.1018,450.6872 C113.5659,443.1111 127.5983,425.1567 135.1275,424.1013 C137.0537,423.8312 138.3353,425.5833 138.1695,428.2889 C138.0702,429.9123 136.1271,433.2962 135.1587,434.9341 L141.0370,439.5826 C144.0508,435.7265 145.7975,431.2971 146.0160,427.7255 C146.4933,419.9331 141.6871,416.2074 135.6439,417.0539 C124.9647,418.5511 106.2081,434.2706 105.2207,450.3967 C104.6309,460.0291 111.8103,459.0229 112.2480,458.9617 L112.9481,458.8635 L112.8951,459.7294 C96.7597,469.5022 94.4603,480.1251 94.1422,485.3200 C93.7510,491.7054 97.9277,498.6308 107.9081,497.2322 C116.9257,495.9687 132.4689,487.6577 142.9898,478.9590 L144.7412,471.6918 Z"
     style="fill-rule: evenodd; fill: #009ee0; "
     id="path18" />
  <path
     d="  M250.5484,471.6839 L263.3791,471.6839 L263.3791,447.5319 L255.0770,447.5319 L255.0770,449.4478 C255.0770,453.2797 254.7190,457.2082 254.0030,461.2337 C253.2866,465.2589 252.1352,468.7424 250.5484,471.6839 Z Z M235.8598,471.6839 L240.1560,471.6839 C243.6780,465.5684 245.4392,457.8854 245.4392,448.6348 L245.4392,438.8233 L273.5393,438.8233 L273.5393,471.6839 L278.1839,471.6839 L278.1839,488.4627 L269.1850,488.4627 L269.1850,480.3347 L245.2071,480.3347 L245.2071,488.4627 L235.8598,488.4627 L235.8598,471.6839 Z Z M280.0534,465.3556 C280.0534,460.8658 281.4661,457.1405 284.2914,454.1794 C287.1170,451.2186 290.8908,449.7381 295.6127,449.7381 C299.9092,449.7381 303.2861,451.0831 305.7440,453.7732 C308.2017,456.4630 309.4308,459.9369 309.4308,464.1945 C309.4308,464.8912 309.3531,465.9364 309.1983,467.3296 L290.3295,467.3296 C290.6779,469.0715 291.5005,470.3970 292.7971,471.3066 C294.0936,472.2163 295.5934,472.6709 297.2965,472.6709 C299.7737,472.6709 302.5216,471.6646 305.5408,469.6520 L309.2564,476.6771 C307.6696,478.0318 305.7245,479.0962 303.4216,479.8701 C301.1187,480.6442 298.8060,481.0314 296.4838,481.0314 C291.4132,481.0314 287.4073,479.4831 284.4658,476.3869 C281.5240,473.2903 280.0534,469.6132 280.0534,465.3556 Z Z M290.5617,461.5818 L299.5027,461.5818 C299.5027,460.3045 299.1254,459.2404 298.3706,458.3889 C297.6160,457.5373 296.6190,457.1116 295.3806,457.1116 C292.8260,457.1116 291.2199,458.6017 290.5617,461.5818 Z Z M313.5061,480.3347 L313.5061,450.4348 L323.5501,450.4348 L323.5501,461.0013 L332.7814,461.0013 L332.7814,450.4348 L342.8254,450.4348 L342.8254,480.3347 L332.7814,480.3347 L332.7814,469.4199 L323.5501,469.4199 L323.5501,480.3347 L313.5061,480.3347 Z Z M354.9713,480.3347 L354.9713,458.8532 L345.9141,458.8532 L345.9141,450.4348 L374.1304,450.4348 L374.1304,458.8532 L365.0153,458.8532 L365.0153,480.3347 L354.9713,480.3347 Z Z M377.2188,480.3347 L377.2188,450.4348 L386.6822,450.4348 L386.6822,463.6140 C386.6822,464.5817 386.6437,465.5684 386.5663,466.5750 L386.6822,466.5750 C386.9147,465.9942 387.4564,465.0075 388.3079,463.6140 L396.6103,450.4348 L406.3640,450.4348 L406.3640,480.3347 L396.9006,480.3347 L396.9006,467.2715 C396.9006,466.0330 396.9391,465.0267 397.0168,464.2526 L396.9006,464.2526 C396.7843,464.5621 396.2426,465.5492 395.2749,467.2137 L386.9725,480.3347 L377.2188,480.3347 Z Z M410.2654,465.3556 C410.2654,461.0982 411.7652,457.4307 414.7648,454.3537 C417.7644,451.2767 421.8188,449.7381 426.9280,449.7381 C429.1727,449.7381 431.3693,450.1154 433.5174,450.8702 C435.6658,451.6248 437.4366,452.7570 438.8298,454.2667 L434.5917,461.0013 C432.5788,459.0660 430.2371,458.0983 427.5666,458.0983 C425.3216,458.0983 423.5703,458.8047 422.3123,460.2175 C421.0543,461.6303 420.4253,463.3044 420.4253,465.2396 C420.4253,467.2137 421.0835,468.9456 422.3993,470.4358 C423.7155,471.9260 425.5540,472.6709 427.9150,472.6709 C430.5855,472.6709 433.3144,471.4710 436.1012,469.0715 L439.7587,476.0963 C438.2881,477.6060 436.4011,478.8060 434.0982,479.6960 C431.7951,480.5864 429.4052,481.0314 426.9280,481.0314 C421.8188,481.0314 417.7644,479.5024 414.7648,476.4447 C411.7652,473.3870 410.2654,469.6906 410.2654,465.3556 Z"
     style="fill-rule: evenodd; fill: #1b1918; "
     id="path20" />
  <path
     d="  M160.1957,540.5850 C160.2255,540.6450 160.3157,540.7348 160.3655,540.7548 C160.3953,540.7748 160.4153,540.6948 160.4455,540.6650 C160.4055,540.5850 160.3655,540.4654 160.3255,540.4254 C160.1458,540.2857 160.0956,540.3454 160.2055,540.5850 L160.1957,540.5850 Z"
     style="fill-rule: evenodd; fill: #009ee0; "
     id="path22" />
  <path
     d="  M208.4034,516.9704 L207.7543,517.0904 C208.0837,517.5297 208.3932,517.9294 208.4034,516.9704 Z"
     style="fill-rule: evenodd; fill: #009ee0; "
     id="path24" />
  <path
     d="  M212.0478,516.0915 C211.9380,516.1013 211.8281,516.1315 211.7183,516.1613 C211.8980,516.4410 212.0078,516.4308 212.0478,516.0915 Z"
     style="fill-rule: evenodd; fill: #009ee0; "
     id="path26" />
  <path
     d="  M485.3345,483.7013 C486.6632,482.9222 488.0410,482.2054 489.4187,481.3385 C490.7965,480.4839 492.1935,479.6165 493.6492,478.7115 C494.4894,478.3472 495.3590,477.6432 496.2970,476.8893 C497.2350,476.1350 498.2217,475.2804 499.2771,474.4638 C501.2314,472.9808 501.1435,472.4278 499.6191,472.6791 C498.2708,472.8302 496.8051,473.3076 495.2028,473.8857 C494.4015,474.1874 493.5809,474.5394 492.7308,474.9417 C491.8712,475.3061 490.9915,475.7084 490.0927,476.1483 C486.7510,477.8323 483.3019,479.3405 479.9020,481.0501 C478.1726,481.8168 476.4529,482.6087 474.7335,483.4258 L472.1540,484.6575 C471.2944,485.0599 470.4147,485.4119 469.5454,485.8014 L464.8264,487.8877 C463.2532,488.5917 461.6901,489.2952 460.0877,489.8985 L450.5418,493.6693 L440.8688,496.9622 L438.4456,497.7793 L435.9932,498.4581 L431.0883,499.7777 C426.6621,500.9468 422.2167,502.0275 417.7613,503.0203 C397.0575,506.5142 376.1775,509.4176 355.1513,509.0280 L351.8388,509.0271 L348.5267,508.9264 L341.9022,508.7630 L335.2776,508.6751 C333.0693,508.6627 330.8514,508.6751 328.6530,508.5117 L301.9890,507.1042 L300.0543,506.9911 L298.5595,506.8529 L291.2414,506.1489 C288.7986,505.9099 286.3462,505.8349 283.8938,505.6335 C281.0507,505.4577 278.2072,505.2943 275.3541,505.1180 C272.5010,504.9798 269.6579,504.7789 266.8048,504.8416 C261.0987,504.8791 255.3829,504.8539 249.6867,504.9546 L238.4993,505.4824 C236.6330,505.5831 234.7670,505.6206 232.9106,505.7840 L227.3315,506.3118 L221.7524,506.8524 C219.8960,507.0410 218.0296,507.1792 216.1732,507.4932 L205.0541,509.1273 C201.8299,509.6931 198.6153,510.4094 195.4007,511.0251 C192.1765,511.6032 188.9815,512.4454 185.7769,513.1993 L180.8329,514.3807 L175.9281,515.8262 C174.2962,516.3164 172.6548,516.7687 171.0233,517.2841 L166.1476,518.9434 C158.8196,521.4572 151.7068,524.9387 144.6425,528.6335 C143.3234,529.3247 142.1509,530.4434 142.0922,531.2224 C142.0531,531.8632 143.2060,531.3607 144.1439,530.9331 C145.4338,530.3298 146.7330,529.8396 148.0033,529.3874 C149.2932,528.9979 150.5536,528.6083 151.8235,528.2312 C153.1230,527.8920 154.3934,527.5148 155.7904,526.9491 C157.5101,526.2327 159.2786,525.6669 161.0275,525.0133 C162.7765,524.3725 164.5158,523.6937 166.3038,523.1531 L171.6093,521.3807 C173.3778,520.8026 175.1755,520.3376 176.9540,519.8098 C181.9958,518.2137 187.1447,517.1577 192.2448,515.8129 L199.9636,514.2543 C202.5334,513.7266 205.1029,513.1736 207.7019,512.8340 C209.9394,512.4948 212.1769,512.2810 214.4044,512.0549 L218.1075,511.6526 L211.9911,512.8715 L200.4717,515.8880 L197.5991,516.6423 C196.6415,516.9064 195.6939,517.2579 194.7460,517.5596 L189.0594,519.4322 L184.1058,521.0914 C182.4644,521.6947 180.8425,522.3736 179.2010,523.0020 L174.2962,524.8874 L171.8338,525.7923 C171.0129,526.0940 170.2020,526.4712 169.3910,526.7852 C166.0494,528.1927 162.6886,529.5123 159.3861,531.0585 L154.4325,533.4090 C152.7815,534.1757 151.1008,534.8920 149.4690,535.7343 C147.6126,536.6392 145.7758,537.6448 143.9582,538.6628 C142.1409,539.7060 140.3724,540.9126 138.5744,542.0185 C134.9887,544.2682 131.4417,546.5935 127.6702,548.5416 C126.2729,549.3083 125.2470,550.9547 125.6672,552.6264 C126.0483,554.0215 127.4066,553.7954 128.4616,553.4686 C131.3439,552.5513 134.2261,552.1490 137.0988,551.9604 C138.5644,551.8597 139.8835,551.4702 141.3588,550.9296 C143.1565,550.2256 144.9250,549.4465 146.6739,548.6295 C148.4620,547.8879 150.2304,547.0961 151.9890,546.2790 L154.6172,545.0221 L157.2749,543.8407 C159.0434,543.0236 160.8019,542.2066 162.5608,541.3900 C165.0719,540.2461 167.6318,539.2533 170.1525,538.1346 L173.9436,536.4630 L177.7834,534.9799 L185.4630,531.9260 L193.2404,529.2363 C195.4875,528.4820 197.7545,527.9670 200.0504,527.6274 C202.3466,527.3006 204.6328,526.9362 206.8703,526.1567 C208.3064,525.6541 209.7525,525.1639 211.2182,524.8494 L213.5240,524.3720 C214.2958,524.2461 215.0776,524.1582 215.8494,524.0452 L220.5001,523.4295 C223.5973,523.0148 226.6849,522.5498 229.7529,521.8961 C235.2341,521.0791 240.7350,520.6520 246.2358,520.2122 C246.3724,520.2122 246.4995,520.2122 246.6365,520.1998 C245.7376,520.4136 244.8388,520.6397 243.9300,520.8535 C241.8292,521.3062 239.7482,521.9094 237.6474,522.3617 C232.8792,523.4804 228.4238,525.8555 223.5386,527.0498 C222.6202,527.2759 221.8971,528.2687 222.0925,529.5384 C222.2978,530.5944 223.1671,530.7327 223.8218,530.7198 C225.6391,530.6823 227.4467,531.0718 229.2056,531.5117 C230.1044,531.7630 230.9645,531.8257 231.8729,531.7003 C236.3870,531.1474 240.8229,529.9911 245.3174,528.9855 C251.6683,527.4649 258.1167,526.0949 264.5751,524.7250 C314.0058,514.9787 369.5227,527.1191 423.4158,516.2162 C426.5716,515.4495 429.7567,514.9469 432.9322,514.4439 C434.5249,514.1926 436.1172,513.9536 437.7003,513.6520 C439.2831,513.3000 440.8562,512.9356 442.4194,512.4958 C444.8818,511.8169 447.3534,511.2640 449.8254,510.7486 C452.2973,510.1828 454.7594,509.5672 457.2217,508.9387 C458.7362,508.5492 460.2410,508.1217 461.7358,507.6694 C463.2307,507.1920 464.7160,506.6263 466.2008,506.0733 C469.1710,504.9546 472.1415,503.8863 475.0725,502.6294 C477.9060,501.4603 480.7491,500.3796 483.6509,499.0220 C485.1066,498.3683 486.5823,497.7023 488.0967,497.0235 C489.6015,496.2820 491.1355,495.5276 492.7279,494.7486 C493.7050,494.6982 494.6526,493.9695 495.6397,493.1021 C496.6264,492.2476 497.6622,491.2419 498.8443,490.4752 C499.9093,489.8092 500.4271,489.1052 500.3687,488.4768 C500.3100,487.8359 499.7140,487.2578 498.7077,486.6669 C496.9392,485.5862 495.1415,485.0328 493.2556,484.8067 C491.3892,484.6181 489.4354,484.7311 487.4420,485.0580 C484.9213,485.4727 482.4101,485.9881 479.9186,486.5785 C480.4167,486.3272 480.9153,486.0631 481.4134,485.8118 C482.7325,485.1078 484.0416,484.3288 485.3803,483.5873 L485.3345,483.7013 Z"
     style="fill-rule: evenodd; fill: #009ee0; "
     id="path28" />
</svg>
