<svg width="1413" height="716" viewBox="0 0 1413 716" fill="none" xmlns="http://www.w3.org/2000/svg">
<path fill-rule="evenodd" clip-rule="evenodd" d="M-120 393.6L-27.5544 344.979C63.721 295.2 248.612 196.8 432.333 196.8C616.054 196.8 800.946 295.2 984.667 278.993C1168.39 262.786 1353.28 130.814 1444.55 65.9859L1537 0V492H1444.55C1353.28 492 1168.39 492 984.667 492C800.946 492 616.054 492 432.333 492C248.612 492 63.721 492 -27.5544 492H-120V393.6Z" fill="#38CAEA" fill-opacity="0.4"/>
<path fill-rule="evenodd" clip-rule="evenodd" d="M1537 459.4L1444.55 508.021C1353.28 557.8 1168.39 656.2 984.667 656.2C800.946 656.2 616.054 557.8 432.333 574.007C248.612 590.214 63.7211 722.186 -27.5543 787.014L-120 853V361L-27.5543 361C63.7211 361 248.612 361 432.333 361C616.054 361 800.946 361 984.667 361C1168.39 361 1353.28 361 1444.55 361H1537V459.4Z" fill="#B0EAF7"/>
</svg>
