<svg width="49" height="38" viewBox="0 0 49 38" fill="none" xmlns="http://www.w3.org/2000/svg">
<path d="M27.2222 12.6667H21.7778V16.8889H27.2222V12.6667ZM38.1111 12.6667H32.6667V16.8889H38.1111V12.6667ZM46.2778 26.3889C42.875 26.3889 39.6083 25.9667 36.5594 25.1856C35.6067 24.9533 34.545 25.1222 33.7828 25.6922L27.7939 30.3367C20.09 27.2967 13.7744 22.42 9.85444 16.4456L15.8433 11.78C16.6056 11.21 16.8233 10.3867 16.5239 9.64778C15.5167 7.28333 14.9722 4.75 14.9722 2.11111C14.9722 0.95 13.7472 0 12.25 0H2.72222C1.225 0 0 0.95 0 2.11111C0 21.9344 20.7161 38 46.2778 38C47.775 38 49 37.05 49 35.8889V28.5C49 27.3389 47.775 26.3889 46.2778 26.3889ZM43.5556 12.6667V16.8889H49V12.6667H43.5556Z" fill="#15A9E5"/>
</svg>
