<svg width="36" height="47" fill="none" xmlns="http://www.w3.org/2000/svg"><path d="M18 10.986c-1.31 0-2.592.375-3.68 1.077a6.446 6.446 0 0 0-2.44 2.868 6.183 6.183 0 0 0-.378 3.693 6.326 6.326 0 0 0 1.813 3.273 6.702 6.702 0 0 0 3.392 1.75 6.848 6.848 0 0 0 3.827-.364 6.578 6.578 0 0 0 2.973-2.355 6.233 6.233 0 0 0 1.116-3.55 6.287 6.287 0 0 0-1.942-4.518 6.755 6.755 0 0 0-4.682-1.874Zm0 9.587a3.399 3.399 0 0 1-1.84-.538 3.223 3.223 0 0 1-1.22-1.435 3.092 3.092 0 0 1-.19-1.846c.129-.62.444-1.19.907-1.636a3.35 3.35 0 0 1 1.696-.875 3.424 3.424 0 0 1 1.914.182 3.29 3.29 0 0 1 1.486 1.177c.364.526.558 1.143.558 1.775a3.144 3.144 0 0 1-.971 2.26 3.38 3.38 0 0 1-2.34.936Z" fill="#01A0E3"/><path d="M30.728 5.086C27.58 2.05 23.38.246 18.935.023 14.491-.199 10.12 1.173 6.663 3.88 3.206 6.583.91 10.428.219 14.669c-.692 4.242.27 8.581 2.698 12.18L15.43 45.385c.278.412.659.75 1.107.985a3.154 3.154 0 0 0 2.922 0 3.01 3.01 0 0 0 1.108-.986l12.514-18.537c2.254-3.337 3.25-7.321 2.82-11.283-.428-3.963-2.255-7.662-5.174-10.48Zm-.421 20.018L17.999 43.335 5.691 25.104c-3.767-5.58-2.959-13.049 1.922-17.758a14.735 14.735 0 0 1 4.765-3.073A15.153 15.153 0 0 1 18 3.194c1.93 0 3.84.367 5.622 1.08a14.734 14.734 0 0 1 4.765 3.072c4.88 4.71 5.688 12.177 1.921 17.758Z" fill="#01A0E3"/></svg>