<svg width="595.276" height="841.89" xmlns="http://www.w3.org/2000/svg"><path d="M338.09 296.405a12 12 0 0 0-2.466.405 14.02 14.02 0 0 0-2.517.942c-.727.355-1.344.745-1.887 1.17-.543.425-1.024.894-1.478 1.408-1.565 1.768-1.944 3.655-1.666 5.57.328 2.253 1.516 4.683 2.876 7.075 1.003 1.765 1.954 3.66 2.682 5.65.756 2.07 1.267 4.236 1.345 6.463l.026.785c.065 1.937.12 3.612.42 5.522.193 1.227.458 2.6.83 3.944.345 1.242.778 2.432 1.324 3.39.445.781.927 1.277 1.381 1.481.144.065.273.085.375.06.145-.038.32-.171.512-.406.593-.724 1.046-2.015 1.214-3.945.078-.898.092-1.543.106-2.174.034-1.517.067-2.976.471-4.745.317-1.387.804-2.673 1.514-3.758.735-1.123 1.701-2.03 2.95-2.626 1.722-.822 3.405-.788 4.903-.19 1.546.616 2.817 1.83 3.642 3.272.571.997.981 2.136 1.26 3.32.292 1.231.44 2.556.483 3.827.012.366.02.818.028 1.267.028 1.543.055 3.005.505 4.325.203.594.495 1.2.871 1.58.13.13.262.221.382.232v.003l.08.006c.935.007 1.79-1.44 2.482-3.24v-.011c.992-2.576 1.478-5.774 1.658-7.837l.063-.78c.038-.685.05-1.212.061-1.733.038-1.784.075-3.509.605-5.428.733-2.655 1.993-4.781 3.245-6.895.668-1.127 1.334-2.251 1.817-3.277.722-1.537 1.287-3.468 1.384-5.364.071-1.39-.115-2.724-.698-3.77a10.256 10.256 0 0 0-.85-1.301 10.37 10.37 0 0 0-1.026-1.138 8.219 8.219 0 0 0-1.088-.848 15.205 15.205 0 0 0-1.604-.943 12.429 12.429 0 0 0-3.946-1.198c-1.298-.167-2.615-.13-3.84.166-.812.195-1.618.562-2.43.93l.002.005c-.896.407-1.799.818-3.03 1.167-.958.272-1.641.397-2.441.38-.781-.016-1.438-.168-2.373-.452-1.25-.379-2.15-.784-3.016-1.175-1.43-.646-2.746-1.24-5.14-1.11Zm-3.927-5.064a17.629 17.629 0 0 1 3.64-.583c3.765-.202 5.675.66 7.753 1.597.75.339 1.529.69 2.33.933.443.134.705.205.844.208.12.002.364-.056.802-.18.734-.208 1.476-.546 2.211-.88h.011c1.02-.463 2.03-.924 3.458-1.267 1.912-.46 3.917-.526 5.855-.276 2.04.263 4.026.878 5.762 1.75a21 21 0 0 1 2.225 1.298c.69.464 1.345.968 1.863 1.468a15.932 15.932 0 0 1 1.58 1.758c.476.616.905 1.273 1.315 2.01 1.149 2.062 1.527 4.441 1.406 6.804-.135 2.66-.918 5.344-1.916 7.468-.656 1.395-1.357 2.578-2.06 3.763-1.069 1.805-2.144 3.62-2.67 5.523-.345 1.252-.375 2.619-.405 4.032-.015.682-.03 1.375-.06 1.934-.024.42-.046.745-.064.955-.209 2.398-.796 6.175-2.034 9.388l-.004-.001c-1.525 3.956-4.04 7.09-8.103 6.862-.072 0-.14-.01-.213-.01-1.602-.138-2.889-.867-3.903-1.892-1.068-1.08-1.786-2.472-2.222-3.75-.722-2.115-.756-4.031-.793-6.052a70.307 70.307 0 0 0-.028-1.178 14.017 14.017 0 0 0-.35-2.72c-.158-.673-.376-1.293-.662-1.793-.233-.407-.52-.721-.808-.836-.103-.041-.234-.037-.386.036-.235.112-.45.333-.646.632-.325.497-.565 1.16-.739 1.92-.285 1.251-.311 2.4-.338 3.594-.019.88-.04 1.78-.106 2.55-.274 3.151-1.208 5.495-2.476 7.045-.993 1.213-2.198 1.979-3.502 2.31-1.349.344-2.744.207-4.073-.39-1.522-.685-2.93-1.985-3.994-3.852-.795-1.395-1.397-3.022-1.855-4.674-.43-1.55-.738-3.15-.964-4.586-.355-2.262-.416-4.093-.486-6.209l-.026-.762c-.056-1.573-.44-3.17-1.013-4.736-.6-1.643-1.415-3.259-2.283-4.786-1.652-2.906-3.107-5.939-3.563-9.069-.505-3.468.189-6.89 3.039-10.11a16.689 16.689 0 0 1 2.23-2.116 16.151 16.151 0 0 1 2.885-1.79 19.83 19.83 0 0 1 3.536-1.34Z" style="fill-rule:evenodd;fill:#f07c00"/><path d="M280.208 353.987a12.03 12.03 0 0 0-.385 2.48 14.17 14.17 0 0 0 .128 2.7c.114.804.293 1.508.527 2.15.238.654.536 1.256.881 1.843 1.195 2.03 2.867 2.972 4.77 3.297 2.257.387 4.937.01 7.63-.544 1.987-.409 4.08-.728 6.195-.804 2.22-.08 4.442.1 6.565.709l.748.215v.011c1.844.532 3.439.992 5.382 1.303 1.239.197 2.632.372 4.012.431 1.294.056 2.562.012 3.64-.21.88-.182 1.502-.488 1.837-.857v-.011c.106-.117.165-.226.17-.318.01-.155-.062-.366-.228-.623-.509-.794-1.596-1.626-3.371-2.379a34.41 34.41 0 0 0-2.047-.765c-1.42-.496-2.783-.974-4.36-1.916-1.22-.729-2.292-1.59-3.106-2.602-.845-1.052-1.41-2.252-1.592-3.62-.25-1.885.306-3.475 1.34-4.72 1.06-1.274 2.608-2.106 4.237-2.445 1.137-.237 2.337-.278 3.525-.18h.011c1.247.103 2.553.372 3.785.727.537.155.882.26 1.216.362 1.489.454 2.9.884 4.282.864.621-.009 1.286-.1 1.774-.344l-.002-.004c.149-.074.267-.16.324-.254l.045-.11.004.002c.292-.883-.826-2.146-2.329-3.365-2.167-1.76-5.045-3.206-6.934-4.007h-.011c-.312-.133-.55-.23-.716-.295a49.879 49.879 0 0 0-1.635-.59c-1.685-.588-3.313-1.156-4.975-2.253-2.298-1.516-3.931-3.373-5.555-5.219-.86-.975-1.716-1.949-2.562-2.742-1.233-1.158-2.89-2.289-4.661-2.966-1.299-.496-2.626-.731-3.804-.5a10.49 10.49 0 0 0-1.51.407c-.488.173-.942.375-1.392.615v.011a8.1 8.1 0 0 0-1.147.767c-.488.383-.974.822-1.381 1.232a12.435 12.435 0 0 0-2.36 3.386c-.556 1.174-.924 2.431-1.022 3.682-.07.9.027 1.758.125 2.624.111.978.222 1.964.175 3.219-.039 1.016-.13 1.712-.39 2.459-.262.754-.606 1.327-1.154 2.114-.71 1.018-1.398 1.775-2.06 2.504-1.055 1.16-2.025 2.226-2.639 4.529Zm-6.032 2.192c.061-1.185.236-2.408.562-3.632.976-3.658 2.387-5.21 3.923-6.898.53-.582 1.08-1.188 1.596-1.929.275-.394.427-.625.467-.74.043-.124.064-.366.08-.799.03-.787-.062-1.596-.153-2.398-.129-1.137-.256-2.265-.147-3.666.153-1.965.713-3.9 1.554-5.675a18.124 18.124 0 0 1 3.444-4.936l.011-.01a21.058 21.058 0 0 1 1.924-1.71c.67-.524 1.352-.994 1.966-1.32l.005.009a16.064 16.064 0 0 1 2.162-.968c.74-.263 1.493-.468 2.308-.628 2.314-.455 4.694-.079 6.904.766 2.49.952 4.806 2.529 6.522 4.14 1.105 1.037 2.02 2.076 2.938 3.119 1.385 1.574 2.777 3.156 4.426 4.244 1.084.716 2.375 1.166 3.712 1.632.583.204 1.175.41 1.813.658.318.123.62.245.892.36l-.002.004c2.233.948 5.652 2.675 8.299 4.823 3.29 2.67 5.493 6.03 4.019 9.83l-.012.044-.069.16c-.629 1.483-1.717 2.48-3.001 3.127h-.011c-1.345.676-2.89.927-4.241.946-2.248.033-4.068-.522-5.988-1.108-.436-.133-.871-.266-1.127-.34a14.02 14.02 0 0 0-2.7-.505c-.709-.058-1.37-.045-1.92.07-.455.094-.844.273-1.047.518-.067.08-.1.206-.078.38.035.262.176.534.396.806.37.46.928.894 1.6 1.295 1.081.647 2.178 1.031 3.319 1.43.74.259 1.498.524 2.38.898 2.92 1.238 4.861 2.847 5.94 4.526.845 1.317 1.2 2.696 1.114 4.034-.09 1.402-.653 2.693-1.632 3.773l-.006-.005c-1.12 1.233-2.79 2.166-4.888 2.6-1.575.326-3.306.395-5.013.321-1.62-.07-3.23-.27-4.654-.498-2.224-.355-3.995-.866-6.043-1.457l-.003.01-.748-.215c-1.534-.439-3.167-.569-4.815-.51-1.752.064-3.542.34-5.265.694-3.277.674-6.609 1.12-9.713.59-3.46-.593-6.505-2.312-8.69-6.022a16.7 16.7 0 0 1-1.323-2.773 16.19 16.19 0 0 1-.815-3.303 19.714 19.714 0 0 1-.172-3.762Z" style="fill-rule:evenodd;fill:#e30016"/><path d="M317.09 426.855c.7.453 1.457.822 2.229 1.117.88.337 1.762.566 2.598.712.827.145 1.552.195 2.213.172a11.12 11.12 0 0 0 2.027-.27c2.304-.51 3.719-1.81 4.617-3.52 1.057-2.011 1.524-4.677 1.83-7.415.227-2.029.572-4.124 1.148-6.146.606-2.125 1.468-4.183 2.714-6.03l.437-.648c1.106-1.634 2.063-3.048 2.91-4.707a35.652 35.652 0 0 0 1.65-3.679c.447-1.199.795-2.414.917-3.52.1-.893-.001-1.582-.252-2.02-.084-.146-.17-.24-.25-.272-.142-.056-.368-.05-.672.03-.902.236-2.025 1.013-3.294 2.475-.468.539-.92 1.134-1.363 1.715-.904 1.187-1.774 2.33-3.166 3.545-1.073.938-2.226 1.693-3.444 2.156-1.256.477-2.567.643-3.918.394-1.88-.347-3.225-1.368-4.088-2.736-.883-1.397-1.194-3.124-1.014-4.775.126-1.153.46-2.311.924-3.42a19.77 19.77 0 0 1 1.854-3.39l.73-1.04c.887-1.27 1.729-2.474 2.136-3.793.183-.593.3-1.259.215-1.813-.028-.185-.077-.335-.156-.403l.003-.003-.03-.025-.002.003c-.737-.601-2.305.076-3.953 1.143-2.34 1.517-4.609 3.811-5.958 5.363-.194.224-.363.424-.504.597-.44.54-.758.959-1.071 1.37-1.086 1.43-2.136 2.81-3.676 4.04-2.15 1.713-4.424 2.696-6.685 3.671-1.182.511-2.362 1.02-3.393 1.588-1.491.82-3.082 2.046-4.265 3.511-.872 1.08-1.504 2.266-1.647 3.457-.071.59-.1 1.101-.087 1.566.013.457.07.958.17 1.527.07.394.208.857.38 1.327.216.59.484 1.192.747 1.7a12.398 12.398 0 0 0 2.485 3.282c.951.899 2.035 1.641 3.187 2.117.823.34 1.67.513 2.524.688 1 .203 2.007.41 3.131.822.932.343 1.56.645 2.208 1.137.644.489 1.083.992 1.66 1.754.738.975 1.25 1.871 1.742 2.735.775 1.358 1.488 2.606 3.502 3.91Zm.213 6.41a17.682 17.682 0 0 1-3.292-1.671c-3.165-2.051-4.206-3.875-5.34-5.86-.385-.676-.786-1.379-1.343-2.114-.291-.385-.463-.602-.553-.67-.085-.065-.316-.159-.746-.316-.792-.291-1.555-.447-2.31-.602-1.122-.228-2.234-.456-3.544-.997-1.829-.756-3.495-1.884-4.915-3.224a18.155 18.155 0 0 1-3.636-4.81 21.036 21.036 0 0 1-1.035-2.365c-.288-.788-.522-1.58-.645-2.28a15.878 15.878 0 0 1-.237-2.347c-.023-.812.013-1.591.109-2.384.282-2.343 1.376-4.493 2.865-6.336 1.683-2.084 3.895-3.8 5.948-4.929 1.312-.722 2.595-1.276 3.88-1.83 1.922-.83 3.854-1.664 5.401-2.898 1.031-.823 1.852-1.903 2.7-3.02.416-.546.836-1.1 1.184-1.526.187-.23.394-.475.614-.729 1.588-1.827 4.288-4.547 7.154-6.404 3.559-2.306 7.438-3.365 10.596-.789l.033.033.096.08.033.023c1.227 1.066 1.844 2.413 2.061 3.836.226 1.475-.015 3.02-.415 4.316-.663 2.148-1.757 3.713-2.911 5.363-.072.103-.137.195-.664.974-.512.757-.98 1.58-1.321 2.394-.273.652-.465 1.285-.526 1.848-.05.465 0 .892.172 1.165.057.09.162.16.324.19.266.048.574-.003.906-.13.549-.208 1.13-.602 1.716-1.114.941-.822 1.652-1.755 2.39-2.726.474-.621.957-1.256 1.586-1.98 2.075-2.39 4.21-3.738 6.15-4.247 1.506-.395 2.924-.305 4.172.192 1.31.521 2.365 1.45 3.084 2.707.826 1.441 1.198 3.318.962 5.453-.176 1.586-.648 3.257-1.25 4.871-.567 1.517-1.257 2.99-1.915 4.277-1.072 2.097-2.079 3.585-3.243 5.305l-.437.647c-.88 1.306-1.507 2.819-1.961 4.414-.485 1.7-.776 3.481-.97 5.216-.371 3.32-.978 6.626-2.451 9.43-1.632 3.107-4.205 5.47-8.405 6.4-.992.22-1.99.365-3.044.402a16.143 16.143 0 0 1-3.388-.238 19.726 19.726 0 0 1-3.639-1Z" style="fill-rule:evenodd;fill:#ab417f"/><path d="M397.774 414.29a11.987 11.987 0 0 0 1.758-1.773 14.065 14.065 0 0 0 1.48-2.248 10.55 10.55 0 0 0 1.213-4.064c.228-2.357-.57-4.106-1.918-5.488-1.583-1.623-3.975-2.891-6.486-4.029-1.838-.833-3.716-1.806-5.485-2.995-1.835-1.234-3.525-2.69-4.899-4.446l-.474-.609c-1.185-1.522-2.21-2.838-3.594-4.226a35.489 35.489 0 0 0-2.989-2.701c-1.01-.803-2.058-1.511-3.058-1.963-.825-.373-1.512-.491-2.003-.39-.152.033-.264.088-.326.162h-.01c-.094.113-.156.323-.173.63-.054.943.338 2.26 1.339 3.924.38.632.796 1.232 1.202 1.818.857 1.237 1.682 2.427 2.4 4.109.556 1.3.916 2.626.98 3.933.066 1.356-.179 2.659-.83 3.859l-.005-.003c-.914 1.683-2.298 2.647-3.861 3.044-1.6.407-3.343.166-4.868-.52-1.042-.469-2.039-1.146-2.956-1.935a19.786 19.786 0 0 1-2.648-2.814 60.735 60.735 0 0 1-.777-1.008c-.937-1.241-1.825-2.418-2.942-3.204-.516-.364-1.112-.684-1.643-.771-.164-.027-.31-.027-.412.014l-.097.06c-.761.532-.597 2.217-.096 4.098.718 2.691 2.2 5.558 3.26 7.322.11.184.252.409.413.66.356.551.664.995.968 1.433l.005-.004c1.006 1.448 1.978 2.848 2.694 4.756.96 2.56 1.192 5.033 1.423 7.493.115 1.237.23 2.47.468 3.71.32 1.675.996 3.571 2.026 5.153.754 1.159 1.686 2.124 2.775 2.629.514.238.991.421 1.46.56.474.139.963.24 1.496.315.391.055.878.067 1.386.048a15.192 15.192 0 0 0 1.854-.185 12.423 12.423 0 0 0 3.896-1.35c1.137-.622 2.175-1.425 2.995-2.386.572-.671.999-1.424 1.428-2.182.501-.884 1.007-1.776 1.751-2.723.627-.797 1.109-1.305 1.757-1.755.618-.43 1.246-.693 2.192-1.021 1.201-.417 2.187-.622 3.136-.818 1.53-.317 2.934-.609 4.795-2.119Zm6.165 1.77a17.66 17.66 0 0 1-2.6 2.615c-2.93 2.378-4.99 2.806-7.23 3.27-.787.163-1.604.333-2.428.619-.413.143-.66.239-.797.334-.108.076-.269.262-.538.605-.518.658-.904 1.339-1.286 2.014-.564.995-1.124 1.982-2.049 3.067-1.273 1.492-2.862 2.727-4.589 3.67a18.13 18.13 0 0 1-5.69 1.97 20.99 20.99 0 0 1-2.562.253c-.83.03-1.653.007-2.361-.092a15.967 15.967 0 0 1-2.316-.494 16.02 16.02 0 0 1-2.235-.847c-2.142-.992-3.85-2.7-5.144-4.689-1.46-2.241-2.407-4.87-2.846-7.168-.265-1.388-.4-2.824-.534-4.264-.195-2.076-.39-4.164-1.091-6.031-.44-1.174-1.232-2.314-2.051-3.494v-.01c-.38-.548-.767-1.104-1.084-1.596-.12-.186-.287-.457-.502-.815-1.247-2.074-2.999-5.482-3.88-8.784-1.091-4.092-.895-8.105 2.537-10.316l.139-.089.044-.022c1.38-.83 2.846-.997 4.263-.765 1.494.245 2.89.948 3.99 1.723 1.85 1.303 2.996 2.82 4.205 4.423l.71.942c.553.709 1.19 1.407 1.873 1.994.529.455 1.074.832 1.605 1.07.416.188.833.269 1.148.189a.45.45 0 0 0 .279-.24v-.011c.132-.246.18-.55.164-.89-.028-.582-.226-1.26-.536-1.986-.499-1.167-1.16-2.12-1.847-3.112-.454-.656-.92-1.327-1.401-2.129-1.629-2.707-2.25-5.144-2.136-7.135.09-1.559.615-2.885 1.474-3.923l-.006-.005c.894-1.078 2.107-1.79 3.537-2.089 1.63-.34 3.528-.116 5.48.766 1.468.663 2.912 1.627 4.253 2.693 1.258 1 2.448 2.115 3.476 3.145 1.599 1.603 2.73 3.056 4.037 4.735l.475.609c.97 1.24 2.215 2.302 3.591 3.228 1.443.97 3.055 1.8 4.667 2.53 3.04 1.377 5.997 2.976 8.212 5.247 2.451 2.513 3.904 5.689 3.492 9.962a16.83 16.83 0 0 1-.553 3.024 16.117 16.117 0 0 1-1.282 3.143 19.778 19.778 0 0 1-2.077 3.156Z" style="fill-rule:evenodd;fill:#009ee0"/><path d="M410.762 333.659a11.986 11.986 0 0 0-1.147-2.22 14.031 14.031 0 0 0-1.677-2.094 10.57 10.57 0 0 0-1.703-1.435 11.078 11.078 0 0 0-1.794-.975c-2.167-.943-4.074-.724-5.802.13-2.037 1.006-3.983 2.889-5.841 4.925-1.358 1.487-2.863 2.973-4.55 4.295-1.74 1.364-3.647 2.522-5.736 3.283l-.732.266c-1.815.656-3.385 1.225-5.124 2.108a35.56 35.56 0 0 0-3.491 2.005c-1.074.712-2.072 1.49-2.812 2.304-.608.667-.932 1.28-.986 1.774-.018.166 0 .297.053.38.08.127.259.25.538.36.876.34 2.25.373 4.146-.066a34.7 34.7 0 0 0 2.103-.584c1.417-.426 2.78-.835 4.655-1.003 1.426-.128 2.797-.065 4.033.271 1.3.353 2.46.992 3.412 1.993 1.317 1.385 1.804 2.997 1.7 4.606-.108 1.655-.875 3.241-1.997 4.478-.759.836-1.716 1.576-2.765 2.214a19.7 19.7 0 0 1-3.484 1.65c-.754.274-.987.355-1.2.428-1.48.511-2.884.996-3.957 1.8-.499.373-.985.841-1.237 1.33-.086.166-.132.322-.105.44l.01.04c.25.907 1.908 1.278 3.859 1.382 2.785.15 5.976-.375 7.986-.84.288-.066.541-.128.755-.185.479-.126 1.08-.308 1.673-.486 1.691-.51 3.324-1.002 5.342-1.093 2.734-.122 5.155.421 7.562.961 1.257.282 2.51.563 3.68.71 1.676.212 3.684.151 5.527-.345 1.34-.36 2.549-.95 3.364-1.827.376-.405.695-.8.974-1.208.271-.396.52-.834.764-1.333a8.22 8.22 0 0 0 .468-1.295c.174-.611.311-1.254.396-1.814.202-1.324.184-2.75-.076-4.13-.24-1.278-.682-2.516-1.342-3.59-.475-.774-1.049-1.401-1.627-2.033-.684-.748-1.375-1.502-2.048-2.507-.574-.857-.911-1.473-1.133-2.209v-.011c-.218-.721-.274-1.394-.294-2.384-.026-1.288.083-2.273.188-3.222v-.012c.171-1.56.33-2.995-.528-5.221v-.012Zm3.592-5.298c.636.978 1.211 2.07 1.675 3.272l.004-.001c1.36 3.532 1.131 5.614.882 7.88-.09.809-.183 1.65-.166 2.502.008.44.024.707.07.868l.002-.001c.044.146.169.354.403.703.463.691.992 1.27 1.517 1.843.783.856 1.559 1.704 2.29 2.897 1.029 1.674 1.712 3.565 2.074 5.494.381 2.028.412 4.104.12 6.013a21.15 21.15 0 0 1-.551 2.522c-.226.794-.505 1.572-.823 2.225a15.936 15.936 0 0 1-1.184 2.042 16.103 16.103 0 0 1-1.506 1.872c-1.606 1.73-3.756 2.828-6.043 3.444-2.562.69-5.36.773-7.697.479-1.484-.187-2.847-.493-4.212-.8-2.039-.457-4.089-.917-6.078-.827-1.269.056-2.596.457-3.969.87-.558.168-1.125.34-1.85.531-.29.076-.603.154-.932.23-2.353.544-6.128 1.155-9.537.973-4.238-.227-8-1.653-9.043-5.598l-.052-.21c-.362-1.568-.068-3.014.592-4.293.69-1.336 1.793-2.446 2.876-3.258 1.831-1.371 3.62-1.989 5.508-2.64l1.11-.383c.866-.314 1.733-.705 2.487-1.164.581-.353 1.102-.753 1.503-1.195.308-.34.515-.709.536-1.024.007-.111-.036-.234-.15-.354-.182-.19-.458-.328-.799-.42-.587-.16-1.294-.185-2.062-.116-1.211.108-2.346.45-3.525.804-.75.224-1.515.455-2.457.673-3.073.71-5.584.547-7.446-.179-1.464-.57-2.566-1.48-3.285-2.618-.748-1.182-1.05-2.549-.894-3.99.18-1.66.982-3.4 2.425-4.985 1.083-1.19 2.445-2.265 3.875-3.211 1.351-.895 2.777-1.682 4.067-2.338 2.023-1.027 3.75-1.652 5.744-2.374l.732-.266c1.484-.54 2.88-1.397 4.186-2.42 1.359-1.065 2.646-2.342 3.841-3.653 2.25-2.465 4.683-4.783 7.524-6.186 3.15-1.556 6.622-1.956 10.564-.241.942.41 1.837.879 2.702 1.462a16.096 16.096 0 0 1 2.589 2.188c.822.85 1.635 1.839 2.363 2.958Z" style="fill-rule:evenodd;fill:#009035"/><path d="M226.603 447.18c-14.866 7.104-24.83 18.885-24.351 29.387.206 4.514 2.241 9.168 9.84 8.302 11.225-1.28 21.445-15.096 20.866-27.769-.06-1.302-.201-2.507-.52-3.78l-7.672 3.056c.224 1.109.276 2.237.327 3.366.468 10.242-6.092 18.668-11.014 19.229-1.727.197-3.847-.609-4.01-4.168-.312-6.857 7.765-18.16 18.145-22.746l-1.611-4.877Z" style="fill-rule:evenodd;fill:#009ee0"/><path d="M180.987 444.265c-8.287 18.133-17.434 42.122-25.274 66.225l6.289.853c5.637-15.3 7.542-23.02 15.744-35.386 2.032-3.023 6.484-10.075 10.025-10.478 1.295-.148 1.417.624 1.429.884l.032.695c-.04 1.05-1.028 2.21-3.652 7.483-2.784 5.552-3.113 7.858-3.038 9.508.17 3.732 3.213 3.821 4.681 3.654 3.28-.374 13.105-8.32 15.613-10.437l1.276-4.791c-2.963 1.646-10.42 6.725-11.802 6.883-.345.039-1.048-.142-1.087-1.01-.072-1.563 1.976-4.24 4.8-10.843 1.097-2.568 2.117-4.953 2.022-7.036-.1-2.17-1.682-4.52-4.445-4.205-3.195.364-7.292 3.798-16.762 14.998l-.888-.423 10.863-24.446-5.826-2.128Zm-46.041 41.02c.743 2.97 3.143 8.018 10.052 7.23 9.412-1.072 17.109-11.198 15.577-21.93l-7.284 2.052c.246 7.301-2.597 13.47-7.346 14.012-2.677.305-3.561-1.95-3.605-2.904-.043-.955.352-3.705.65-4.786 12.262-8.989 30.92-24.29 30.449-34.62-.17-3.732-1.907-5.628-5.274-5.244-12.435 1.417-30.525 21.54-33.449 41.156-.272 2.999.214 5.047.23 5.034Zm9.795-13.593c2.8-7.125 4.969-10.95 10.461-18.032 5.575-7.18 8.232-7.918 9.44-8.056 1.814-.207 1.728 1.723 1.756 2.33.246 5.382-13.17 17.643-21.657 23.758Z" style="fill-rule:evenodd;fill:#009ee0"/><path d="M144.741 471.692c-16.657 13.757-28.887 18.452-37.547 18.774-3.622.134-4.529-2.585-4.343-5.615.656-10.715 14.864-21.613 24.468-29.611l-2.343-5.68c-2.188 1.7-5.883 3.936-8.247 4.267-1.926.27-3.78-.65-3.627-3.14.464-7.576 14.496-25.53 22.025-26.586 1.927-.27 3.208 1.482 3.042 4.188-.099 1.623-2.042 5.007-3.01 6.645l5.878 4.649c3.014-3.857 4.76-8.286 4.979-11.858.477-7.792-4.329-11.518-10.372-10.671-10.68 1.497-29.436 17.217-30.423 33.343-.59 9.632 6.59 8.626 7.027 8.565l.7-.099-.053.866c-16.135 9.773-18.435 20.396-18.753 25.591-.391 6.385 3.786 13.31 13.766 11.912 9.018-1.263 24.56-9.574 35.082-18.273l1.751-7.267Z" style="fill-rule:evenodd;fill:#009ee0"/><path d="M250.548 471.684h12.831v-24.152h-8.302v1.916c0 3.832-.358 7.76-1.074 11.786-.716 4.025-1.868 7.508-3.455 10.45Zm-14.688 0h4.296c3.522-6.116 5.283-13.799 5.283-23.05v-9.81h28.1v32.86h4.645v16.779h-8.999v-8.128h-23.978v8.128h-9.347v-16.78Zm44.193-6.328c0-4.49 1.413-8.216 4.238-11.177 2.826-2.96 6.6-4.44 11.322-4.44 4.296 0 7.673 1.344 10.131 4.034 2.458 2.69 3.687 6.164 3.687 10.421 0 .697-.078 1.742-.233 3.136H290.33c.348 1.742 1.17 3.067 2.467 3.977 1.297.91 2.796 1.364 4.5 1.364 2.477 0 5.225-1.006 8.244-3.019l3.715 7.025c-1.586 1.355-3.531 2.42-5.834 3.193-2.303.774-4.616 1.161-6.938 1.161-5.07 0-9.077-1.548-12.018-4.644-2.942-3.097-4.413-6.774-4.413-11.031Zm10.509-3.774h8.94c0-1.277-.377-2.342-1.131-3.193-.755-.852-1.752-1.277-2.99-1.277-2.555 0-4.161 1.49-4.82 4.47Zm22.944 18.753v-29.9h10.044V461h9.231v-10.566h10.044v29.9h-10.044V469.42h-9.23v10.915h-10.045Zm41.465 0v-21.482h-9.057v-8.418h28.216v8.418h-9.115v21.482h-10.044Zm22.248 0v-29.9h9.463v13.179c0 .968-.038 1.954-.116 2.961h.116c.233-.58.774-1.567 1.626-2.961l8.302-13.18h9.754v29.9h-9.463v-13.063c0-1.238.038-2.244.116-3.018h-.116c-.117.31-.658 1.296-1.626 2.96l-8.302 13.122h-9.754Zm33.046-14.98c0-4.257 1.5-7.924 4.5-11.001 3-3.077 7.054-4.616 12.163-4.616 2.245 0 4.441.377 6.59 1.132 2.148.755 3.919 1.887 5.312 3.397L434.592 461c-2.013-1.935-4.355-2.903-7.025-2.903-2.245 0-3.997.707-5.255 2.12-1.258 1.412-1.887 3.086-1.887 5.022 0 1.974.659 3.706 1.974 5.196 1.317 1.49 3.155 2.235 5.516 2.235 2.67 0 5.4-1.2 8.186-3.6l3.658 7.025c-1.47 1.51-3.358 2.71-5.66 3.6a19.715 19.715 0 0 1-7.171 1.335c-5.11 0-9.164-1.529-12.163-4.586-3-3.058-4.5-6.754-4.5-11.09Z" style="fill-rule:evenodd;fill:#1b1918"/><path d="M160.196 540.585c.03.06.12.15.17.17.03.02.05-.06.08-.09-.04-.08-.08-.2-.12-.24-.18-.14-.23-.08-.12.16h-.01Zm48.207-23.615-.649.12c.33.44.64.84.65-.12Zm3.645-.879c-.11.01-.22.04-.33.07.18.28.29.27.33-.07Z" style="fill-rule:evenodd;fill:#009ee0"/><path d="M485.334 483.701c1.33-.779 2.707-1.496 4.085-2.363l4.23-2.627c.84-.364 1.71-1.068 2.648-1.822.938-.754 1.925-1.609 2.98-2.425 1.954-1.483 1.867-2.036.342-1.785-1.348.151-2.814.629-4.416 1.207-.801.301-1.622.653-2.472 1.056-.86.364-1.74.766-2.638 1.206-3.342 1.684-6.791 3.192-10.191 4.902-1.73.767-3.45 1.559-5.168 2.376l-2.58 1.232c-.86.402-1.74.754-2.609 1.143l-4.719 2.087c-1.573.704-3.136 1.407-4.738 2.01l-9.546 3.771-9.673 3.293-2.423.817-2.453.68-4.905 1.319a351.918 351.918 0 0 1-13.327 3.242c-20.704 3.494-41.584 6.398-62.61 6.008h-3.312l-3.312-.102-6.625-.163-6.624-.088c-2.209-.012-4.427 0-6.625-.163l-26.664-1.408-1.935-.113-1.494-.138-7.319-.704c-2.442-.24-4.895-.314-7.347-.515-2.843-.176-5.687-.34-8.54-.516-2.853-.138-5.696-.34-8.55-.276-5.705.037-11.421.012-17.117.113l-11.188.527c-1.866.101-3.732.139-5.588.302l-5.58.528-5.579.54c-1.856.189-3.722.327-5.579.641l-11.119 1.634c-3.224.566-6.439 1.282-9.653 1.898-3.225.578-6.42 1.42-9.624 2.174l-4.944 1.182-4.905 1.445c-1.632.49-3.273.943-4.905 1.458l-4.875 1.66c-7.328 2.513-14.441 5.995-21.505 9.69-1.32.69-2.492 1.81-2.55 2.588-.04.641 1.113.139 2.05-.289 1.29-.603 2.59-1.093 3.86-1.546 1.29-.39 2.55-.779 3.82-1.156 1.3-.339 2.57-.716 3.967-1.282 1.72-.716 3.489-1.282 5.238-1.936 1.749-.64 3.488-1.32 5.276-1.86l5.305-1.772c1.769-.578 3.566-1.043 5.345-1.571 5.042-1.596 10.19-2.652 15.29-3.997l7.72-1.559c2.57-.527 5.139-1.08 7.738-1.42 2.237-.34 4.475-.553 6.702-.78l3.703-.401-6.116 1.218-11.52 3.017-2.872.754c-.957.264-1.905.616-2.853.918l-5.687 1.872-4.953 1.66c-1.642.603-3.263 1.282-4.905 1.91l-4.905 1.885-2.462.905c-.821.302-1.632.68-2.443.993-3.342 1.408-6.702 2.727-10.005 4.274l-4.953 2.35c-1.651.767-3.332 1.483-4.964 2.325-1.856.905-3.693 1.91-5.51 2.929-1.818 1.043-3.587 2.25-5.385 3.356-3.585 2.25-7.132 4.574-10.904 6.523-1.397.766-2.423 2.413-2.003 4.084.381 1.395 1.74 1.17 2.795.843 2.882-.918 5.764-1.32 8.637-1.509 1.465-.1 2.785-.49 4.26-1.03a90.855 90.855 0 0 0 5.315-2.3 139.04 139.04 0 0 0 5.315-2.351l2.628-1.257 2.658-1.181c1.768-.817 3.527-1.634 5.286-2.451 2.51-1.144 5.07-2.137 7.591-3.255l3.792-1.672 3.84-1.483 7.679-3.054 7.777-2.69a39.424 39.424 0 0 1 6.81-1.609c2.297-.326 4.583-.69 6.82-1.47 1.436-.503 2.882-.993 4.348-1.308l2.306-.477c.772-.126 1.554-.214 2.325-.327l4.651-.615c3.097-.415 6.185-.88 9.253-1.534 5.481-.817 10.982-1.244 16.483-1.684.136 0 .264 0 .4-.012-.898.214-1.797.44-2.706.654-2.1.452-4.182 1.055-6.283 1.508-4.768 1.118-9.223 3.494-14.108 4.688-.919.226-1.642 1.219-1.446 2.488.205 1.056 1.074 1.195 1.729 1.182 1.817-.038 3.625.352 5.384.792a6.402 6.402 0 0 0 2.667.188c4.514-.553 8.95-1.709 13.444-2.715 6.351-1.52 12.8-2.89 19.258-4.26 49.43-9.746 104.948 2.394 158.84-8.509 3.157-.767 6.342-1.27 9.517-1.772 1.593-.251 3.185-.49 4.768-.792 1.583-.352 3.156-.716 4.72-1.156 2.462-.68 4.933-1.232 7.405-1.747a305.892 305.892 0 0 0 7.397-1.81 111.42 111.42 0 0 0 4.514-1.27c1.495-.477 2.98-1.043 4.465-1.596 2.97-1.118 5.94-2.187 8.871-3.444 2.834-1.169 5.677-2.25 8.579-3.607 1.456-.654 2.931-1.32 4.446-1.998 1.505-.742 3.038-1.496 4.63-2.275.978-.05 1.926-.78 2.913-1.647.986-.854 2.022-1.86 3.204-2.627 1.065-.666 1.583-1.37 1.525-1.998-.059-.641-.655-1.22-1.661-1.81-1.769-1.08-3.567-1.634-5.452-1.86-1.867-.189-3.82-.076-5.814.251-2.52.415-5.032.93-7.523 1.52.498-.25.996-.515 1.494-.766 1.32-.704 2.629-1.483 3.967-2.225l-.046.114Z" style="fill-rule:evenodd;fill:#009ee0"/></svg>