<svg width="49" height="38" fill="none" xmlns="http://www.w3.org/2000/svg"><path d="M27.222 12.667h-5.444v4.222h5.444v-4.222Zm10.89 0h-5.445v4.222h5.444v-4.222Zm8.166 13.722c-3.403 0-6.67-.422-9.719-1.203-.952-.233-2.014-.064-2.776.506l-5.99 4.645c-7.703-3.04-14.019-7.917-17.939-13.891l5.99-4.666c.762-.57.98-1.393.68-2.132a19.138 19.138 0 0 1-1.552-7.537C14.972.95 13.747 0 12.25 0H2.722C1.225 0 0 .95 0 2.111 0 21.934 20.716 38 46.278 38 47.775 38 49 37.05 49 35.889V28.5c0-1.161-1.225-2.111-2.722-2.111Zm-2.722-13.722v4.222H49v-4.222h-5.444Z" fill="#15A9E5"/></svg>